<svg width="76" height="92" viewBox="0 0 76 92" fill="none" xmlns="http://www.w3.org/2000/svg">
<path fill-rule="evenodd" clip-rule="evenodd" d="M38 0.333313C45.827 0.332078 53.4583 2.77997 59.8241 7.33388C66.19 11.8878 70.9714 18.3195 73.4981 25.7274C76.0249 33.1354 76.1703 41.1483 73.9141 48.6431C71.6579 56.1379 67.1131 62.7389 60.9167 67.5208C59.5 68.6125 58.8333 69.9791 58.8333 71.1666C58.8333 73.3768 57.9554 75.4964 56.3926 77.0592C54.8298 78.622 52.7101 79.5 50.5 79.5V75.3333C50.5 74.2282 50.061 73.1684 49.2796 72.387C48.4982 71.6056 47.4384 71.1666 46.3333 71.1666C45.2283 71.1666 44.1685 71.6056 43.3871 72.387C42.6057 73.1684 42.1667 74.2282 42.1667 75.3333V79.5H33.8333V75.3333C33.8333 74.2282 33.3943 73.1684 32.6129 72.387C31.8315 71.6056 30.7717 71.1666 29.6667 71.1666C28.5616 71.1666 27.5018 71.6056 26.7204 72.387C25.939 73.1684 25.5 74.2282 25.5 75.3333V79.5C23.2899 79.5 21.1702 78.622 19.6074 77.0592C18.0446 75.4964 17.1667 73.3768 17.1667 71.1666C17.1667 69.9833 16.5 68.6125 15.0833 67.5208C8.88693 62.7389 4.34212 56.1379 2.08589 48.6431C-0.170341 41.1483 -0.0248895 33.1354 2.50186 25.7274C5.02861 18.3195 9.80999 11.8878 16.1759 7.33388C22.5417 2.77997 30.173 0.332078 38 0.333313ZM23.4167 29.5C20.654 29.5 18.0045 30.5974 16.051 32.5509C14.0975 34.5045 13 37.154 13 39.9166C13 42.6793 14.0975 45.3288 16.051 47.2823C18.0045 49.2358 20.654 50.3333 23.4167 50.3333C26.1793 50.3333 28.8289 49.2358 30.7824 47.2823C32.7359 45.3288 33.8333 42.6793 33.8333 39.9166C33.8333 37.154 32.7359 34.5045 30.7824 32.5509C28.8289 30.5974 26.1793 29.5 23.4167 29.5ZM52.5833 29.5C49.8207 29.5 47.1711 30.5974 45.2176 32.5509C43.2641 34.5045 42.1667 37.154 42.1667 39.9166C42.1667 42.6793 43.2641 45.3288 45.2176 47.2823C47.1711 49.2358 49.8207 50.3333 52.5833 50.3333C55.346 50.3333 57.9955 49.2358 59.949 47.2823C61.9025 45.3288 63 42.6793 63 39.9166C63 37.154 61.9025 34.5045 59.949 32.5509C57.9955 30.5974 55.346 29.5 52.5833 29.5Z" fill="black"/>
</svg>
