<svg width="108" height="102" viewBox="0 0 108 102" fill="none" xmlns="http://www.w3.org/2000/svg">
<path d="M68.4 50.7536C70.38 50.7536 72 49.2374 72 47.3843V44.015C72 42.1619 70.38 40.6457 68.4 40.6457C66.42 40.6457 64.8 42.1619 64.8 44.015V47.3843C64.8 49.2374 66.42 50.7536 68.4 50.7536ZM17.676 15.3759C21.888 15.3759 25.488 18.004 26.604 21.6091C25.38 22.7547 24.372 24.0687 23.544 25.4838H18.324C15.8511 25.4838 13.4795 24.5644 11.7309 22.9279C9.98235 21.2913 9 19.0717 9 16.7573V16.0835C9 15.6791 9.324 15.3759 9.756 15.3759H17.676ZM46.8 67.6002C46.8 68.4938 46.4207 69.3508 45.7456 69.9826C45.0705 70.6145 44.1548 70.9695 43.2 70.9695C42.2452 70.9695 41.3295 70.6145 40.6544 69.9826C39.9793 69.3508 39.6 68.4938 39.6 67.6002C39.6 66.7066 39.9793 65.8496 40.6544 65.2177C41.3295 64.5858 42.2452 64.2308 43.2 64.2308C44.1548 64.2308 45.0705 64.5858 45.7456 65.2177C46.4207 65.8496 46.8 66.7066 46.8 67.6002ZM64.8 70.9695C65.7548 70.9695 66.6705 70.6145 67.3456 69.9826C68.0207 69.3508 68.4 68.4938 68.4 67.6002C68.4 66.7066 68.0207 65.8496 67.3456 65.2177C66.6705 64.5858 65.7548 64.2308 64.8 64.2308C63.8452 64.2308 62.9295 64.5858 62.2544 65.2177C61.5793 65.8496 61.2 66.7066 61.2 67.6002C61.2 68.4938 61.5793 69.3508 62.2544 69.9826C62.9295 70.6145 63.8452 70.9695 64.8 70.9695Z" fill="white"/>
<path d="M43.7364 0.540827L43.7004 0.557673C42.624 0.958621 41.5188 1.46739 40.4244 2.17494C35.8812 4.98831 33.0084 9.07528 32.49 13.8631C30.8257 11.7258 28.6461 9.98607 26.1284 8.78533C23.6106 7.58459 20.8258 6.95668 18 6.95262H5.4C3.96783 6.95262 2.59432 7.48509 1.58162 8.43289C0.568927 9.38069 0 10.6662 0 12.0066V17.0605C0 21.5285 1.89642 25.8135 5.27208 28.9728C6.94353 30.5372 8.92784 31.7781 11.1117 32.6247C13.2956 33.4713 15.6362 33.9071 18 33.9071V61.121C15.7167 64.4783 14.4708 68.3616 14.4 72.3408C14.3196 78.0559 16.6296 83.5741 20.8369 87.717C25.0442 91.8599 30.8153 94.2992 36.918 94.5142C39.1401 96.6486 41.7964 98.345 44.7302 99.5032C47.664 100.662 50.8159 101.258 54 101.258C57.1841 101.258 60.336 100.662 63.2698 99.5032C66.2036 98.345 68.8599 96.6486 71.082 94.5142C77.1847 94.2992 82.9558 91.8599 87.1631 87.717C91.3704 83.5741 93.6804 78.0559 93.6 72.3408C93.5319 68.357 92.2858 64.4687 90 61.1075V33.9071C94.7739 33.9071 99.3523 32.1322 102.728 28.9728C106.104 25.8135 108 21.5285 108 17.0605V12.0066C108 10.6662 107.431 9.38069 106.418 8.43289C105.406 7.48509 104.032 6.95262 102.6 6.95262H90C85.7599 6.95482 81.6578 8.36347 78.4224 10.9284C77.238 7.42432 74.7288 4.3751 71.172 2.17494C70.1492 1.52312 69.0515 0.980642 67.8996 0.557673L67.8636 0.540827C63.6264 -0.992208 59.814 3.10487 61.5924 6.79089L61.6032 6.81785L61.6176 6.8448C62.7624 9.10224 62.9964 11.3698 62.1432 13.6912H50.112C50.0062 13.1926 49.9137 12.6915 49.8348 12.1885C49.6565 11.1153 49.5758 10.0299 49.5936 8.94388C49.6296 7.88929 49.8024 7.20868 49.986 6.8448L50.0004 6.81785L50.0112 6.79089C51.7896 3.10487 47.9736 -0.992208 43.7364 0.540827ZM37.8 20.4298H57.6L62.568 25.0795C64.4219 26.8122 66.6224 28.1861 69.0438 29.1227C71.4651 30.0592 74.06 30.5401 76.68 30.5378H82.6812L82.7244 30.9084C82.7748 31.3464 82.8 31.7844 82.8 32.2224V59.1567C78.9971 56.9464 74.6044 55.7867 70.128 55.8109H50.4V51.1579C50.4 42.4651 45.504 33.6712 37.8 28.8531C33.9552 26.4441 25.2 27.1685 25.2 27.1685H18C15.1357 27.1685 12.3886 26.1035 10.3632 24.2079C8.33785 22.3123 7.2 19.7413 7.2 17.0605V13.6912H18C20.0977 13.6902 22.1503 14.261 23.9071 15.3338C25.6639 16.4066 27.0488 17.935 27.8928 19.7324L29.3508 22.8389L32.6592 21.4507C34.2792 20.7769 36.0288 20.4265 37.8 20.4298ZM37.8 87.816C35.6521 87.8162 33.5257 87.4167 31.5443 86.6406C29.5629 85.8646 27.7662 84.7276 26.2587 83.2957C24.7512 81.8637 23.563 80.1656 22.7632 78.2999C21.9634 76.4342 21.568 74.4384 21.6 72.4284C21.6432 69.3978 22.6688 66.451 24.5412 63.9781L24.7932 63.6446C28.1268 60.8548 32.8572 59.096 38.1636 59.1802H70.1316C75.3228 59.1668 79.9416 60.9053 83.2104 63.6378L83.4588 63.968C85.3308 66.4445 86.3604 69.3926 86.4 72.4284C86.432 74.4384 86.0366 76.4342 85.2368 78.2999C84.437 80.1656 83.2488 81.8637 81.7413 83.2957C80.2337 84.7276 78.4371 85.8646 76.4557 86.6406C74.4743 87.4167 72.3479 87.8162 70.2 87.816H37.8ZM43.6608 91.1853H64.3104C61.8841 92.9644 58.98 94.0821 55.9182 94.415C52.8565 94.7479 49.7559 94.2832 46.9584 93.0721C45.7858 92.5631 44.6794 91.93 43.6608 91.1853ZM90 27.1685H85.2768C85.0364 26.5933 84.7624 26.0308 84.456 25.4838H89.676C92.1489 25.4838 94.5205 24.5644 96.2691 22.9279C98.0177 21.2913 99 19.0717 99 16.7573V16.0834C99 15.6791 98.676 15.3759 98.244 15.3759H90.324C86.112 15.3759 82.512 18.0039 81.396 21.6091C81.4296 21.6405 81.4584 21.6731 81.4824 21.7068C80.9554 21.2155 80.3963 20.7553 79.8084 20.3288L80.0892 19.7223C80.936 17.9242 82.3244 16.3961 84.0846 15.325C85.8448 14.2538 87.9005 13.6861 90 13.6912H100.8V17.0605C100.8 19.7413 99.6621 22.3123 97.6368 24.2079C95.6114 26.1035 92.8643 27.1685 90 27.1685ZM36 47.3843V44.015C36 42.1619 37.62 40.6457 39.6 40.6457C41.58 40.6457 43.2 42.1619 43.2 44.015V47.3843C43.2 49.2374 41.58 50.7536 39.6 50.7536C37.62 50.7536 36 49.2374 36 47.3843Z" fill="white"/>
</svg>
