<svg width="100" height="40" viewBox="0 0 100 40" fill="none" xmlns="http://www.w3.org/2000/svg">
<rect width="100" height="40" rx="20" fill="#01609B"/>
<path d="M40.3549 23.444H35.1169L34.2169 26H32.0749L36.5569 13.472H38.9329L43.4149 26H41.2549L40.3549 23.444ZM39.7789 21.77L37.7449 15.956L35.6929 21.77H39.7789ZM49.4497 13.49C50.7817 13.49 51.9457 13.748 52.9417 14.264C53.9497 14.768 54.7237 15.5 55.2637 16.46C55.8157 17.408 56.0917 18.518 56.0917 19.79C56.0917 21.062 55.8157 22.166 55.2637 23.102C54.7237 24.038 53.9497 24.758 52.9417 25.262C51.9457 25.754 50.7817 26 49.4497 26H45.3637V13.49H49.4497ZM49.4497 24.326C50.9137 24.326 52.0357 23.93 52.8157 23.138C53.5957 22.346 53.9857 21.23 53.9857 19.79C53.9857 18.338 53.5957 17.204 52.8157 16.388C52.0357 15.572 50.9137 15.164 49.4497 15.164H47.4157V24.326H49.4497ZM62.2114 13.49C63.5434 13.49 64.7074 13.748 65.7034 14.264C66.7114 14.768 67.4854 15.5 68.0254 16.46C68.5774 17.408 68.8534 18.518 68.8534 19.79C68.8534 21.062 68.5774 22.166 68.0254 23.102C67.4854 24.038 66.7114 24.758 65.7034 25.262C64.7074 25.754 63.5434 26 62.2114 26H58.1254V13.49H62.2114ZM62.2114 24.326C63.6754 24.326 64.7974 23.93 65.5774 23.138C66.3574 22.346 66.7474 21.23 66.7474 19.79C66.7474 18.338 66.3574 17.204 65.5774 16.388C64.7974 15.572 63.6754 15.164 62.2114 15.164H60.1774V24.326H62.2114Z" fill="white"/>
</svg>
