<svg width="100" height="40" viewBox="0 0 100 40" fill="none" xmlns="http://www.w3.org/2000/svg">
<rect width="100" height="40" rx="20" fill="#01609B"/>
<path d="M35.6471 24.344H39.8771V26H33.5951V13.49H35.6471V24.344ZM40.9092 20.996C40.9092 20 41.1132 19.118 41.5212 18.35C41.9412 17.582 42.5052 16.988 43.2132 16.568C43.9332 16.136 44.7252 15.92 45.5892 15.92C46.3692 15.92 47.0472 16.076 47.6232 16.388C48.2112 16.688 48.6792 17.066 49.0272 17.522V16.082H51.0972V26H49.0272V24.524C48.6792 24.992 48.2052 25.382 47.6052 25.694C47.0052 26.006 46.3212 26.162 45.5532 26.162C44.7012 26.162 43.9212 25.946 43.2132 25.514C42.5052 25.07 41.9412 24.458 41.5212 23.678C41.1132 22.886 40.9092 21.992 40.9092 20.996ZM49.0272 21.032C49.0272 20.348 48.8832 19.754 48.5952 19.25C48.3192 18.746 47.9532 18.362 47.4972 18.098C47.0412 17.834 46.5492 17.702 46.0212 17.702C45.4932 17.702 45.0012 17.834 44.5452 18.098C44.0892 18.35 43.7172 18.728 43.4292 19.232C43.1532 19.724 43.0152 20.312 43.0152 20.996C43.0152 21.68 43.1532 22.28 43.4292 22.796C43.7172 23.312 44.0892 23.708 44.5452 23.984C45.0132 24.248 45.5052 24.38 46.0212 24.38C46.5492 24.38 47.0412 24.248 47.4972 23.984C47.9532 23.72 48.3192 23.336 48.5952 22.832C48.8832 22.316 49.0272 21.716 49.0272 21.032ZM57.3924 26.162C56.6124 26.162 55.9104 26.024 55.2864 25.748C54.6744 25.46 54.1884 25.076 53.8284 24.596C53.4684 24.104 53.2764 23.558 53.2524 22.958H55.3764C55.4124 23.378 55.6104 23.732 55.9704 24.02C56.3424 24.296 56.8044 24.434 57.3564 24.434C57.9324 24.434 58.3764 24.326 58.6884 24.11C59.0124 23.882 59.1744 23.594 59.1744 23.246C59.1744 22.874 58.9944 22.598 58.6344 22.418C58.2864 22.238 57.7284 22.04 56.9604 21.824C56.2164 21.62 55.6104 21.422 55.1424 21.23C54.6744 21.038 54.2664 20.744 53.9184 20.348C53.5824 19.952 53.4144 19.43 53.4144 18.782C53.4144 18.254 53.5704 17.774 53.8824 17.342C54.1944 16.898 54.6384 16.55 55.2144 16.298C55.8024 16.046 56.4744 15.92 57.2304 15.92C58.3584 15.92 59.2644 16.208 59.9484 16.784C60.6444 17.348 61.0164 18.122 61.0644 19.106H59.0124C58.9764 18.662 58.7964 18.308 58.4724 18.044C58.1484 17.78 57.7104 17.648 57.1584 17.648C56.6184 17.648 56.2044 17.75 55.9164 17.954C55.6284 18.158 55.4844 18.428 55.4844 18.764C55.4844 19.028 55.5804 19.25 55.7724 19.43C55.9644 19.61 56.1984 19.754 56.4744 19.862C56.7504 19.958 57.1584 20.084 57.6984 20.24C58.4184 20.432 59.0064 20.63 59.4624 20.834C59.9304 21.026 60.3324 21.314 60.6684 21.698C61.0044 22.082 61.1784 22.592 61.1904 23.228C61.1904 23.792 61.0344 24.296 60.7224 24.74C60.4104 25.184 59.9664 25.532 59.3904 25.784C58.8264 26.036 58.1604 26.162 57.3924 26.162ZM65.8016 17.756V23.246C65.8016 23.618 65.8856 23.888 66.0536 24.056C66.2336 24.212 66.5336 24.29 66.9536 24.29H68.2136V26H66.5936C65.6696 26 64.9616 25.784 64.4696 25.352C63.9776 24.92 63.7316 24.218 63.7316 23.246V17.756H62.5616V16.082H63.7316V13.616H65.8016V16.082H68.2136V17.756H65.8016Z" fill="white"/>
</svg>
