<svg width="386" height="680" viewBox="0 0 386 680" fill="none" xmlns="http://www.w3.org/2000/svg">
<g clip-path="url(#clip0_35_3)">
<rect width="386" height="680" rx="40" fill="white"/>
<rect width="386" height="680" fill="#1D1D1D"/>
<rect y="579" width="386" height="100" fill="url(#paint0_linear_35_3)"/>
<rect y="580" width="386" height="100" fill="#282828"/>
<rect x="33" y="300" width="320" height="100" fill="url(#paint1_linear_35_3)"/>
<rect x="33" y="442" width="320" height="100" fill="url(#paint2_linear_35_3)"/>
<rect x="18" y="301" width="350" height="240" rx="20" fill="#282828"/>
<rect x="132" y="166" width="1" height="111" fill="url(#paint3_linear_35_3)"/>
<rect x="252" y="166" width="1" height="111" fill="url(#paint4_linear_35_3)"/>
<path d="M22 186C22 183.239 24.2386 181 27 181H117C119.761 181 122 183.239 122 186V276C122 278.761 119.761 281 117 281H27C24.2386 281 22 278.761 22 276V186Z" fill="url(#paint5_linear_35_3)"/>
<rect x="143" y="181" width="100" height="100" rx="5" fill="url(#paint6_linear_35_3)"/>
<rect x="263" y="181" width="100" height="100" rx="5" fill="url(#paint7_linear_35_3)"/>
<rect x="93.5" y="101.5" width="199" height="45" rx="22.5" stroke="#FAFF01"/>
<path d="M179.884 80.668C180.356 80.756 180.756 80.996 181.084 81.388C181.412 81.78 181.576 82.236 181.576 82.756C181.576 83.18 181.468 83.564 181.252 83.908C181.044 84.244 180.736 84.512 180.328 84.712C179.92 84.904 179.432 85 178.864 85H175.96V76.612H178.78C179.628 76.612 180.272 76.808 180.712 77.2C181.16 77.592 181.384 78.1 181.384 78.724C181.384 79.244 181.244 79.668 180.964 79.996C180.684 80.316 180.324 80.54 179.884 80.668ZM176.8 80.32H178.756C179.324 80.32 179.76 80.188 180.064 79.924C180.376 79.652 180.532 79.28 180.532 78.808C180.532 78.344 180.376 77.98 180.064 77.716C179.76 77.452 179.312 77.32 178.72 77.32H176.8V80.32ZM178.804 84.292C179.412 84.292 179.884 84.148 180.22 83.86C180.564 83.572 180.736 83.176 180.736 82.672C180.736 82.168 180.556 81.768 180.196 81.472C179.844 81.168 179.368 81.016 178.768 81.016H176.8V84.292H178.804ZM183.96 79.612C184.144 79.204 184.424 78.888 184.8 78.664C185.184 78.44 185.652 78.328 186.204 78.328V79.204H185.976C185.368 79.204 184.88 79.368 184.512 79.696C184.144 80.024 183.96 80.572 183.96 81.34V85H183.12V78.448H183.96V79.612ZM187.084 81.712C187.084 81.04 187.216 80.452 187.48 79.948C187.752 79.436 188.124 79.044 188.596 78.772C189.076 78.492 189.616 78.352 190.216 78.352C190.84 78.352 191.376 78.496 191.824 78.784C192.28 79.072 192.608 79.44 192.808 79.888V78.448H193.648V85H192.808V83.548C192.6 83.996 192.268 84.368 191.812 84.664C191.364 84.952 190.828 85.096 190.204 85.096C189.612 85.096 189.076 84.956 188.596 84.676C188.124 84.396 187.752 84 187.48 83.488C187.216 82.976 187.084 82.384 187.084 81.712ZM192.808 81.724C192.808 81.196 192.7 80.732 192.484 80.332C192.268 79.932 191.972 79.624 191.596 79.408C191.228 79.192 190.82 79.084 190.372 79.084C189.908 79.084 189.492 79.188 189.124 79.396C188.756 79.604 188.464 79.908 188.248 80.308C188.04 80.7 187.936 81.168 187.936 81.712C187.936 82.248 188.04 82.72 188.248 83.128C188.464 83.528 188.756 83.836 189.124 84.052C189.492 84.26 189.908 84.364 190.372 84.364C190.82 84.364 191.228 84.256 191.596 84.04C191.972 83.824 192.268 83.516 192.484 83.116C192.7 82.716 192.808 82.252 192.808 81.724ZM198.637 78.328C199.421 78.328 200.061 78.572 200.557 79.06C201.053 79.54 201.301 80.24 201.301 81.16V85H200.473V81.256C200.473 80.544 200.293 80 199.933 79.624C199.581 79.248 199.097 79.06 198.481 79.06C197.849 79.06 197.345 79.26 196.969 79.66C196.593 80.06 196.405 80.648 196.405 81.424V85H195.565V78.448H196.405V79.564C196.613 79.164 196.913 78.86 197.305 78.652C197.697 78.436 198.141 78.328 198.637 78.328ZM202.775 81.712C202.775 81.04 202.911 80.452 203.183 79.948C203.455 79.436 203.827 79.044 204.299 78.772C204.779 78.492 205.319 78.352 205.919 78.352C206.495 78.352 207.015 78.492 207.479 78.772C207.943 79.052 208.283 79.416 208.499 79.864V76.12H209.339V85H208.499V83.536C208.299 83.992 207.971 84.368 207.515 84.664C207.059 84.952 206.523 85.096 205.907 85.096C205.307 85.096 204.767 84.956 204.287 84.676C203.815 84.396 203.443 84 203.171 83.488C202.907 82.976 202.775 82.384 202.775 81.712ZM208.499 81.724C208.499 81.196 208.391 80.732 208.175 80.332C207.959 79.932 207.663 79.624 207.287 79.408C206.919 79.192 206.511 79.084 206.063 79.084C205.599 79.084 205.183 79.188 204.815 79.396C204.447 79.604 204.155 79.908 203.939 80.308C203.731 80.7 203.627 81.168 203.627 81.712C203.627 82.248 203.731 82.72 203.939 83.128C204.155 83.528 204.447 83.836 204.815 84.052C205.183 84.26 205.599 84.364 206.063 84.364C206.511 84.364 206.919 84.256 207.287 84.04C207.663 83.824 207.959 83.516 208.175 83.116C208.391 82.716 208.499 82.252 208.499 81.724Z" fill="#999999"/>
<path d="M61.156 220.72V229H60.316V222.388L57.364 229H56.752L53.8 222.412V229H52.96V220.72H53.848L57.052 227.896L60.256 220.72H61.156ZM65.9296 229.096C65.3136 229.096 64.7576 228.96 64.2616 228.688C63.7736 228.408 63.3856 228.016 63.0976 227.512C62.8176 227 62.6776 226.404 62.6776 225.724C62.6776 225.044 62.8216 224.452 63.1096 223.948C63.3976 223.436 63.7896 223.044 64.2856 222.772C64.7816 222.492 65.3376 222.352 65.9536 222.352C66.5696 222.352 67.1256 222.492 67.6216 222.772C68.1256 223.044 68.5176 223.436 68.7976 223.948C69.0856 224.452 69.2296 225.044 69.2296 225.724C69.2296 226.396 69.0856 226.988 68.7976 227.5C68.5096 228.012 68.1136 228.408 67.6096 228.688C67.1056 228.96 66.5456 229.096 65.9296 229.096ZM65.9296 228.364C66.3616 228.364 66.7616 228.268 67.1296 228.076C67.4976 227.876 67.7936 227.58 68.0176 227.188C68.2496 226.788 68.3656 226.3 68.3656 225.724C68.3656 225.148 68.2536 224.664 68.0296 224.272C67.8056 223.872 67.5096 223.576 67.1416 223.384C66.7736 223.184 66.3736 223.084 65.9416 223.084C65.5096 223.084 65.1096 223.184 64.7416 223.384C64.3736 223.576 64.0776 223.872 63.8536 224.272C63.6376 224.664 63.5296 225.148 63.5296 225.724C63.5296 226.3 63.6376 226.788 63.8536 227.188C64.0776 227.58 64.3696 227.876 64.7296 228.076C65.0976 228.268 65.4976 228.364 65.9296 228.364ZM70.3768 225.712C70.3768 225.04 70.5128 224.452 70.7848 223.948C71.0568 223.436 71.4288 223.044 71.9008 222.772C72.3808 222.492 72.9208 222.352 73.5208 222.352C74.0968 222.352 74.6168 222.492 75.0808 222.772C75.5448 223.052 75.8848 223.416 76.1008 223.864V220.12H76.9408V229H76.1008V227.536C75.9008 227.992 75.5728 228.368 75.1168 228.664C74.6608 228.952 74.1248 229.096 73.5088 229.096C72.9088 229.096 72.3688 228.956 71.8888 228.676C71.4168 228.396 71.0448 228 70.7728 227.488C70.5088 226.976 70.3768 226.384 70.3768 225.712ZM76.1008 225.724C76.1008 225.196 75.9928 224.732 75.7768 224.332C75.5608 223.932 75.2648 223.624 74.8888 223.408C74.5208 223.192 74.1128 223.084 73.6648 223.084C73.2008 223.084 72.7848 223.188 72.4168 223.396C72.0488 223.604 71.7568 223.908 71.5408 224.308C71.3328 224.7 71.2288 225.168 71.2288 225.712C71.2288 226.248 71.3328 226.72 71.5408 227.128C71.7568 227.528 72.0488 227.836 72.4168 228.052C72.7848 228.26 73.2008 228.364 73.6648 228.364C74.1128 228.364 74.5208 228.256 74.8888 228.04C75.2648 227.824 75.5608 227.516 75.7768 227.116C75.9928 226.716 76.1008 226.252 76.1008 225.724ZM84.7864 225.388C84.7864 225.676 84.7784 225.896 84.7624 226.048H79.3264C79.3504 226.544 79.4704 226.968 79.6864 227.32C79.9024 227.672 80.1864 227.94 80.5384 228.124C80.8904 228.3 81.2744 228.388 81.6904 228.388C82.2344 228.388 82.6904 228.256 83.0584 227.992C83.4344 227.728 83.6824 227.372 83.8024 226.924H84.6904C84.5304 227.564 84.1864 228.088 83.6584 228.496C83.1384 228.896 82.4824 229.096 81.6904 229.096C81.0744 229.096 80.5224 228.96 80.0344 228.688C79.5464 228.408 79.1624 228.016 78.8824 227.512C78.6104 227 78.4744 226.404 78.4744 225.724C78.4744 225.044 78.6104 224.448 78.8824 223.936C79.1544 223.424 79.5344 223.032 80.0224 222.76C80.5104 222.488 81.0664 222.352 81.6904 222.352C82.3144 222.352 82.8584 222.488 83.3224 222.76C83.7944 223.032 84.1544 223.4 84.4024 223.864C84.6584 224.32 84.7864 224.828 84.7864 225.388ZM83.9344 225.364C83.9424 224.876 83.8424 224.46 83.6344 224.116C83.4344 223.772 83.1584 223.512 82.8064 223.336C82.4544 223.16 82.0704 223.072 81.6544 223.072C81.0304 223.072 80.4984 223.272 80.0584 223.672C79.6184 224.072 79.3744 224.636 79.3264 225.364H83.9344ZM87.1633 220.12V229H86.3233V220.12H87.1633Z" fill="#AAAAAA"/>
<path d="M63.035 200.615C63.4233 200.615 63.7517 200.479 64.02 200.208C64.2892 199.935 64.4237 199.605 64.4237 199.216C64.4237 198.827 64.2875 198.498 64.015 198.229C63.7425 197.961 63.4121 197.827 63.0238 197.827C62.6346 197.827 62.3054 197.963 62.0363 198.235C61.7688 198.507 61.635 198.838 61.635 199.227C61.635 199.616 61.7708 199.944 62.0425 200.212C62.315 200.481 62.6458 200.615 63.035 200.615ZM74.4712 200.615C74.8396 200.615 75.1546 200.494 75.4163 200.253C75.6771 200.011 75.8196 199.708 75.8438 199.344C75.4912 199.244 75.1554 199.103 74.8363 198.923C74.5171 198.742 74.2096 198.51 73.9137 198.229L73.7338 198.049C73.5413 198.167 73.3837 198.331 73.2613 198.54C73.1388 198.75 73.0775 198.977 73.0775 199.221C73.0775 199.609 73.2129 199.938 73.4837 200.209C73.7546 200.48 74.0837 200.615 74.4712 200.615ZM60.2875 203.5V205.375C60.2875 205.552 60.2279 205.701 60.1087 205.82C59.9896 205.939 59.8412 205.999 59.6637 206H59.375C59.1975 206 59.0492 205.94 58.93 205.82C58.8108 205.7 58.7508 205.552 58.75 205.375V196.193L61.2313 189.125C61.2921 188.927 61.4092 188.773 61.5825 188.663C61.7567 188.554 61.9504 188.5 62.1637 188.5H66.395V188.896C66.395 189.031 66.4 189.172 66.41 189.319C66.42 189.465 66.4433 189.609 66.48 189.75H62.3625L60.5212 194.943H70.605L71.855 196.193H60V202.25H77.5V199.503C77.7183 199.478 77.9329 199.431 78.1437 199.364C78.3537 199.295 78.5558 199.207 78.75 199.099V205.375C78.75 205.552 78.69 205.701 78.57 205.82C78.45 205.939 78.3017 205.999 78.125 206H77.8375C77.66 206 77.5112 205.94 77.3913 205.82C77.2712 205.7 77.2112 205.552 77.2112 205.375V203.5H60.2875ZM73.75 188.162C74.0083 188.162 74.225 188.075 74.4 187.9C74.575 187.726 74.6625 187.509 74.6625 187.25C74.6625 186.991 74.575 186.774 74.4 186.6C74.2258 186.425 74.0092 186.338 73.75 186.338C73.4908 186.338 73.2742 186.425 73.1 186.6C72.925 186.774 72.8375 186.991 72.8375 187.25C72.8375 187.509 72.925 187.726 73.1 187.9C73.2742 188.075 73.4908 188.162 73.75 188.162ZM75.9525 196.062L69.8175 189.928C69.6867 189.797 69.58 189.638 69.4975 189.45C69.415 189.263 69.3742 189.07 69.375 188.872V184.39C69.375 183.948 69.5221 183.586 69.8162 183.303C70.1112 183.018 70.4692 182.875 70.89 182.875H75.3725C75.5692 182.875 75.7617 182.916 75.95 182.998C76.1383 183.079 76.2975 183.186 76.4275 183.317L82.5625 189.453C82.8683 189.758 83.0212 190.117 83.0212 190.528C83.0212 190.939 82.8683 191.298 82.5625 191.603L78.1038 196.062C77.7971 196.368 77.4383 196.521 77.0275 196.521C76.6167 196.521 76.2583 196.368 75.9525 196.062ZM76.4775 194.837C76.6225 194.981 76.8033 195.052 77.02 195.052C77.2358 195.052 77.4158 194.98 77.56 194.836L81.3363 191.06C81.4804 190.916 81.5525 190.735 81.5525 190.519C81.5525 190.302 81.4804 190.122 81.3363 189.979L75.6987 184.341C75.6187 184.261 75.5308 184.205 75.435 184.174C75.3392 184.142 75.2433 184.126 75.1475 184.125H71.01C70.8975 184.125 70.805 184.161 70.7325 184.234C70.66 184.306 70.6242 184.398 70.625 184.509V188.646C70.625 188.743 70.6412 188.839 70.6737 188.935C70.7054 189.032 70.7613 189.12 70.8413 189.2L76.4775 194.837Z" fill="#FAFF01"/>
<path d="M168.424 229L166.348 225.496H164.8V229H163.96V220.612H166.48C167.416 220.612 168.124 220.836 168.604 221.284C169.092 221.732 169.336 222.32 169.336 223.048C169.336 223.656 169.16 224.176 168.808 224.608C168.464 225.032 167.952 225.308 167.272 225.436L169.432 229H168.424ZM164.8 224.812H166.492C167.148 224.812 167.64 224.652 167.968 224.332C168.304 224.012 168.472 223.584 168.472 223.048C168.472 222.496 168.312 222.072 167.992 221.776C167.672 221.472 167.168 221.32 166.48 221.32H164.8V224.812ZM176.931 225.388C176.931 225.676 176.923 225.896 176.907 226.048H171.471C171.495 226.544 171.615 226.968 171.831 227.32C172.047 227.672 172.331 227.94 172.683 228.124C173.035 228.3 173.419 228.388 173.835 228.388C174.379 228.388 174.835 228.256 175.203 227.992C175.579 227.728 175.827 227.372 175.947 226.924H176.835C176.675 227.564 176.331 228.088 175.803 228.496C175.283 228.896 174.627 229.096 173.835 229.096C173.219 229.096 172.667 228.96 172.179 228.688C171.691 228.408 171.307 228.016 171.027 227.512C170.755 227 170.619 226.404 170.619 225.724C170.619 225.044 170.755 224.448 171.027 223.936C171.299 223.424 171.679 223.032 172.167 222.76C172.655 222.488 173.211 222.352 173.835 222.352C174.459 222.352 175.003 222.488 175.467 222.76C175.939 223.032 176.299 223.4 176.547 223.864C176.803 224.32 176.931 224.828 176.931 225.388ZM176.079 225.364C176.087 224.876 175.987 224.46 175.779 224.116C175.579 223.772 175.303 223.512 174.951 223.336C174.599 223.16 174.215 223.072 173.799 223.072C173.175 223.072 172.643 223.272 172.203 223.672C171.763 224.072 171.519 224.636 171.471 225.364H176.079ZM181.048 223.156H179.524V229H178.684V223.156H177.772V222.448H178.684V221.992C178.684 221.28 178.864 220.756 179.224 220.42C179.592 220.084 180.184 219.916 181 219.916V220.636C180.456 220.636 180.072 220.74 179.848 220.948C179.632 221.156 179.524 221.504 179.524 221.992V222.448H181.048V223.156ZM188.298 225.388C188.298 225.676 188.29 225.896 188.274 226.048H182.838C182.862 226.544 182.982 226.968 183.198 227.32C183.414 227.672 183.698 227.94 184.05 228.124C184.402 228.3 184.786 228.388 185.202 228.388C185.746 228.388 186.202 228.256 186.57 227.992C186.946 227.728 187.194 227.372 187.314 226.924H188.202C188.042 227.564 187.698 228.088 187.17 228.496C186.65 228.896 185.994 229.096 185.202 229.096C184.586 229.096 184.034 228.96 183.546 228.688C183.058 228.408 182.674 228.016 182.394 227.512C182.122 227 181.986 226.404 181.986 225.724C181.986 225.044 182.122 224.448 182.394 223.936C182.666 223.424 183.046 223.032 183.534 222.76C184.022 222.488 184.578 222.352 185.202 222.352C185.826 222.352 186.37 222.488 186.834 222.76C187.306 223.032 187.666 223.4 187.914 223.864C188.17 224.32 188.298 224.828 188.298 225.388ZM187.446 225.364C187.454 224.876 187.354 224.46 187.146 224.116C186.946 223.772 186.67 223.512 186.318 223.336C185.966 223.16 185.582 223.072 185.166 223.072C184.542 223.072 184.01 223.272 183.57 223.672C183.13 224.072 182.886 224.636 182.838 225.364H187.446ZM190.675 223.612C190.859 223.204 191.139 222.888 191.515 222.664C191.899 222.44 192.367 222.328 192.919 222.328V223.204H192.691C192.083 223.204 191.595 223.368 191.227 223.696C190.859 224.024 190.675 224.572 190.675 225.34V229H189.835V222.448H190.675V223.612ZM200.111 225.388C200.111 225.676 200.103 225.896 200.087 226.048H194.651C194.675 226.544 194.795 226.968 195.011 227.32C195.227 227.672 195.511 227.94 195.863 228.124C196.215 228.3 196.599 228.388 197.015 228.388C197.559 228.388 198.015 228.256 198.383 227.992C198.759 227.728 199.007 227.372 199.127 226.924H200.015C199.855 227.564 199.511 228.088 198.983 228.496C198.463 228.896 197.807 229.096 197.015 229.096C196.399 229.096 195.847 228.96 195.359 228.688C194.871 228.408 194.487 228.016 194.207 227.512C193.935 227 193.799 226.404 193.799 225.724C193.799 225.044 193.935 224.448 194.207 223.936C194.479 223.424 194.859 223.032 195.347 222.76C195.835 222.488 196.391 222.352 197.015 222.352C197.639 222.352 198.183 222.488 198.647 222.76C199.119 223.032 199.479 223.4 199.727 223.864C199.983 224.32 200.111 224.828 200.111 225.388ZM199.259 225.364C199.267 224.876 199.167 224.46 198.959 224.116C198.759 223.772 198.483 223.512 198.131 223.336C197.779 223.16 197.395 223.072 196.979 223.072C196.355 223.072 195.823 223.272 195.383 223.672C194.943 224.072 194.699 224.636 194.651 225.364H199.259ZM204.72 222.328C205.504 222.328 206.144 222.572 206.64 223.06C207.136 223.54 207.384 224.24 207.384 225.16V229H206.556V225.256C206.556 224.544 206.376 224 206.016 223.624C205.664 223.248 205.18 223.06 204.564 223.06C203.932 223.06 203.428 223.26 203.052 223.66C202.676 224.06 202.488 224.648 202.488 225.424V229H201.648V222.448H202.488V223.564C202.696 223.164 202.996 222.86 203.388 222.652C203.78 222.436 204.224 222.328 204.72 222.328ZM208.857 225.724C208.857 225.044 208.993 224.452 209.265 223.948C209.537 223.436 209.913 223.044 210.393 222.772C210.873 222.492 211.421 222.352 212.037 222.352C212.845 222.352 213.509 222.552 214.029 222.952C214.557 223.352 214.897 223.896 215.049 224.584H214.149C214.037 224.112 213.793 223.744 213.417 223.48C213.049 223.208 212.589 223.072 212.037 223.072C211.597 223.072 211.201 223.172 210.849 223.372C210.497 223.572 210.217 223.872 210.009 224.272C209.809 224.664 209.709 225.148 209.709 225.724C209.709 226.3 209.809 226.788 210.009 227.188C210.217 227.588 210.497 227.888 210.849 228.088C211.201 228.288 211.597 228.388 212.037 228.388C212.589 228.388 213.049 228.256 213.417 227.992C213.793 227.72 214.037 227.344 214.149 226.864H215.049C214.897 227.536 214.557 228.076 214.029 228.484C213.501 228.892 212.837 229.096 212.037 229.096C211.421 229.096 210.873 228.96 210.393 228.688C209.913 228.408 209.537 228.016 209.265 227.512C208.993 227 208.857 226.404 208.857 225.724ZM222.529 225.388C222.529 225.676 222.521 225.896 222.505 226.048H217.069C217.093 226.544 217.213 226.968 217.429 227.32C217.645 227.672 217.929 227.94 218.281 228.124C218.633 228.3 219.017 228.388 219.433 228.388C219.977 228.388 220.433 228.256 220.801 227.992C221.177 227.728 221.425 227.372 221.545 226.924H222.433C222.273 227.564 221.929 228.088 221.401 228.496C220.881 228.896 220.225 229.096 219.433 229.096C218.817 229.096 218.265 228.96 217.777 228.688C217.289 228.408 216.905 228.016 216.625 227.512C216.353 227 216.217 226.404 216.217 225.724C216.217 225.044 216.353 224.448 216.625 223.936C216.897 223.424 217.277 223.032 217.765 222.76C218.253 222.488 218.809 222.352 219.433 222.352C220.057 222.352 220.601 222.488 221.065 222.76C221.537 223.032 221.897 223.4 222.145 223.864C222.401 224.32 222.529 224.828 222.529 225.388ZM221.677 225.364C221.685 224.876 221.585 224.46 221.377 224.116C221.177 223.772 220.901 223.512 220.549 223.336C220.197 223.16 219.813 223.072 219.397 223.072C218.773 223.072 218.241 223.272 217.801 223.672C217.361 224.072 217.117 224.636 217.069 225.364H221.677Z" fill="#AAAAAA"/>
<path d="M181.75 195.784C181.75 195.67 181.757 195.557 181.77 195.443C181.783 195.328 181.81 195.217 181.851 195.108L184.231 188.375C184.292 188.177 184.409 188.023 184.582 187.913C184.757 187.804 184.95 187.75 185.164 187.75H190.156C190.334 187.75 190.482 187.81 190.601 187.93C190.72 188.05 190.78 188.199 190.781 188.376C190.782 188.554 190.722 188.702 190.601 188.821C190.48 188.94 190.332 189 190.156 189H185.361L183.52 194.193H193.625C193.802 194.193 193.951 194.253 194.07 194.373C194.189 194.493 194.249 194.641 194.25 194.819C194.251 194.996 194.191 195.145 194.07 195.264C193.949 195.383 193.801 195.443 193.625 195.443H183V201.5H200.5V196.396C200.5 196.22 200.56 196.071 200.68 195.951C200.8 195.831 200.949 195.771 201.126 195.771C201.304 195.771 201.452 195.831 201.571 195.951C201.69 196.071 201.75 196.22 201.75 196.396V204.481C201.75 204.695 201.675 204.876 201.525 205.026C201.375 205.175 201.192 205.25 200.978 205.25C200.763 205.25 200.582 205.175 200.434 205.025C200.285 204.876 200.211 204.695 200.211 204.481V202.75H183.289V204.481C183.289 204.695 183.214 204.876 183.064 205.025C182.914 205.175 182.731 205.25 182.516 205.25C182.302 205.25 182.121 205.175 181.972 205.025C181.824 204.877 181.75 204.695 181.75 204.481V195.784ZM197.477 199.865C197.866 199.865 198.194 199.729 198.463 199.457C198.731 199.185 198.865 198.855 198.865 198.466C198.865 198.077 198.729 197.748 198.457 197.479C198.185 197.211 197.854 197.077 197.465 197.077C197.077 197.077 196.748 197.213 196.48 197.485C196.211 197.757 196.076 198.088 196.076 198.477C196.076 198.866 196.213 199.194 196.485 199.463C196.757 199.731 197.089 199.865 197.477 199.865ZM186.034 199.865C186.423 199.865 186.752 199.729 187.021 199.457C187.289 199.185 187.423 198.855 187.423 198.466C187.423 198.077 187.287 197.748 187.015 197.479C186.742 197.211 186.412 197.077 186.023 197.077C185.634 197.077 185.306 197.213 185.038 197.485C184.769 197.757 184.635 198.088 184.635 198.477C184.635 198.866 184.771 199.194 185.042 199.463C185.315 199.731 185.645 199.865 186.034 199.865ZM198.759 192.75C197.373 192.75 196.195 192.265 195.225 191.295C194.254 190.324 193.769 189.14 193.769 187.741C193.769 186.359 194.253 185.181 195.222 184.209C196.192 183.236 197.377 182.75 198.779 182.75C200.165 182.75 201.343 183.235 202.314 184.206C203.285 185.176 203.77 186.358 203.77 187.75C203.77 189.142 203.281 190.324 202.304 191.295C201.326 192.266 200.145 192.751 198.759 192.75ZM198.769 188.52C198.897 188.52 199.01 188.472 199.106 188.375C199.202 188.279 199.25 188.167 199.25 188.037V185.25C199.25 185.122 199.202 185.009 199.106 184.912C199.01 184.818 198.897 184.77 198.769 184.77C198.641 184.77 198.529 184.818 198.433 184.914C198.337 185.01 198.289 185.122 198.289 185.25V188.037C198.289 188.167 198.337 188.279 198.433 188.375C198.529 188.472 198.64 188.52 198.769 188.52ZM198.77 190.827C198.937 190.827 199.07 190.773 199.17 190.664C199.272 190.555 199.33 190.425 199.346 190.274C199.346 190.114 199.292 189.974 199.184 189.854C199.075 189.734 198.937 189.673 198.77 189.673C198.602 189.672 198.465 189.726 198.356 189.836C198.248 189.946 198.193 190.084 198.192 190.25C198.192 190.416 198.246 190.553 198.355 190.662C198.465 190.773 198.603 190.827 198.77 190.827Z" fill="#FAFF01"/>
<path d="M298.576 224.8C298.576 223.976 298.756 223.24 299.116 222.592C299.476 221.936 299.968 221.428 300.592 221.068C301.216 220.7 301.912 220.516 302.68 220.516C303.616 220.516 304.416 220.74 305.08 221.188C305.752 221.628 306.24 222.252 306.544 223.06H305.56C305.32 222.492 304.952 222.048 304.456 221.728C303.968 221.408 303.376 221.248 302.68 221.248C302.064 221.248 301.508 221.392 301.012 221.68C300.524 221.968 300.14 222.384 299.86 222.928C299.58 223.464 299.44 224.088 299.44 224.8C299.44 225.512 299.58 226.136 299.86 226.672C300.14 227.208 300.524 227.62 301.012 227.908C301.508 228.196 302.064 228.34 302.68 228.34C303.376 228.34 303.968 228.184 304.456 227.872C304.952 227.552 305.32 227.112 305.56 226.552H306.544C306.24 227.352 305.752 227.972 305.08 228.412C304.408 228.852 303.608 229.072 302.68 229.072C301.912 229.072 301.216 228.892 300.592 228.532C299.968 228.164 299.476 227.656 299.116 227.008C298.756 226.36 298.576 225.624 298.576 224.8ZM311.086 229.096C310.47 229.096 309.914 228.96 309.418 228.688C308.93 228.408 308.542 228.016 308.254 227.512C307.974 227 307.834 226.404 307.834 225.724C307.834 225.044 307.978 224.452 308.266 223.948C308.554 223.436 308.946 223.044 309.442 222.772C309.938 222.492 310.494 222.352 311.11 222.352C311.726 222.352 312.282 222.492 312.778 222.772C313.282 223.044 313.674 223.436 313.954 223.948C314.242 224.452 314.386 225.044 314.386 225.724C314.386 226.396 314.242 226.988 313.954 227.5C313.666 228.012 313.27 228.408 312.766 228.688C312.262 228.96 311.702 229.096 311.086 229.096ZM311.086 228.364C311.518 228.364 311.918 228.268 312.286 228.076C312.654 227.876 312.95 227.58 313.174 227.188C313.406 226.788 313.522 226.3 313.522 225.724C313.522 225.148 313.41 224.664 313.186 224.272C312.962 223.872 312.666 223.576 312.298 223.384C311.93 223.184 311.53 223.084 311.098 223.084C310.666 223.084 310.266 223.184 309.898 223.384C309.53 223.576 309.234 223.872 309.01 224.272C308.794 224.664 308.686 225.148 308.686 225.724C308.686 226.3 308.794 226.788 309.01 227.188C309.234 227.58 309.526 227.876 309.886 228.076C310.254 228.268 310.654 228.364 311.086 228.364ZM316.757 220.12V229H315.917V220.12H316.757ZM321.527 229.096C320.911 229.096 320.355 228.96 319.859 228.688C319.371 228.408 318.983 228.016 318.695 227.512C318.415 227 318.275 226.404 318.275 225.724C318.275 225.044 318.419 224.452 318.707 223.948C318.995 223.436 319.387 223.044 319.883 222.772C320.379 222.492 320.935 222.352 321.551 222.352C322.167 222.352 322.723 222.492 323.219 222.772C323.723 223.044 324.115 223.436 324.395 223.948C324.683 224.452 324.827 225.044 324.827 225.724C324.827 226.396 324.683 226.988 324.395 227.5C324.107 228.012 323.711 228.408 323.207 228.688C322.703 228.96 322.143 229.096 321.527 229.096ZM321.527 228.364C321.959 228.364 322.359 228.268 322.727 228.076C323.095 227.876 323.391 227.58 323.615 227.188C323.847 226.788 323.963 226.3 323.963 225.724C323.963 225.148 323.851 224.664 323.627 224.272C323.403 223.872 323.107 223.576 322.739 223.384C322.371 223.184 321.971 223.084 321.539 223.084C321.107 223.084 320.707 223.184 320.339 223.384C319.971 223.576 319.675 223.872 319.451 224.272C319.235 224.664 319.127 225.148 319.127 225.724C319.127 226.3 319.235 226.788 319.451 227.188C319.675 227.58 319.967 227.876 320.327 228.076C320.695 228.268 321.095 228.364 321.527 228.364ZM327.198 223.612C327.382 223.204 327.662 222.888 328.038 222.664C328.422 222.44 328.89 222.328 329.442 222.328V223.204H329.214C328.606 223.204 328.118 223.368 327.75 223.696C327.382 224.024 327.198 224.572 327.198 225.34V229H326.358V222.448H327.198V223.612Z" fill="#AAAAAA"/>
<path d="M314.006 185.346C313.593 185.346 313.24 185.201 312.949 184.911C312.656 184.622 312.51 184.27 312.51 183.856C312.51 183.531 312.617 183.182 312.83 182.81C313.044 182.438 313.434 181.937 314 181.307C314.566 181.937 314.955 182.438 315.169 182.81C315.383 183.182 315.49 183.53 315.49 183.856C315.49 184.27 315.346 184.622 315.057 184.911C314.768 185.201 314.417 185.346 314.005 185.346M308.044 185.346C307.631 185.346 307.279 185.201 306.986 184.911C306.694 184.621 306.548 184.27 306.549 183.856C306.549 183.531 306.655 183.182 306.869 182.81C307.083 182.438 307.473 181.937 308.039 181.307C308.604 181.937 308.993 182.438 309.208 182.81C309.422 183.182 309.529 183.53 309.529 183.856C309.529 184.27 309.385 184.622 309.096 184.911C308.807 185.201 308.456 185.346 308.044 185.346ZM319.968 185.346C319.555 185.346 319.203 185.201 318.91 184.911C318.618 184.622 318.471 184.27 318.471 183.856C318.471 183.531 318.578 183.182 318.792 182.81C319.006 182.438 319.395 181.937 319.961 181.307C320.527 181.937 320.917 182.438 321.131 182.81C321.345 183.182 321.452 183.53 321.452 183.856C321.452 184.27 321.308 184.622 321.019 184.911C320.73 185.201 320.38 185.346 319.968 185.346ZM305.538 204V206.5H304V196.692L306.703 189H321.299L324 196.692V206.5H322.463V204H305.538ZM305.769 195.442H322.23L320.39 190.25H307.611L305.769 195.442ZM308.284 201.115C308.672 201.115 309 200.979 309.269 200.707C309.538 200.435 309.673 200.104 309.673 199.715C309.673 199.327 309.536 198.998 309.264 198.73C308.991 198.461 308.661 198.326 308.273 198.326C307.883 198.326 307.554 198.462 307.285 198.735C307.017 199.007 306.884 199.338 306.884 199.726C306.884 200.115 307.02 200.445 307.291 200.714C307.564 200.981 307.895 201.115 308.284 201.115ZM319.726 201.115C320.115 201.115 320.443 200.979 320.711 200.707C320.98 200.435 321.114 200.104 321.114 199.715C321.114 199.327 320.978 198.998 320.706 198.73C320.434 198.461 320.103 198.326 319.715 198.326C319.326 198.326 318.997 198.462 318.727 198.735C318.46 199.007 318.326 199.338 318.326 199.726C318.326 200.115 318.462 200.445 318.734 200.714C319.006 200.981 319.337 201.115 319.726 201.115ZM305.249 202.75H322.75V196.692H305.249V202.75Z" fill="#FAFF01"/>
<mask id="path-21-inside-1_35_3" fill="white">
<path d="M211.8 63.8C212.62 64.15 213.415 64.15 214.725 64.15C216.06 64.15 216.855 64.15 217.625 63.8C218.725 63.35 219.575 62.525 220 61.45C220.35 60.65 220.35 59.9 220.35 58.525V50.825C220.35 47.75 220.35 46.05 219.85 44.35C219.338 42.67 218.375 41.225 216.8 38.8625L216.675 38.675L216.025 37.71L219.6 35.025C219.998 34.7266 220.261 34.2825 220.331 33.7902C220.402 33.2979 220.273 32.7978 219.975 32.4C219.677 32.0022 219.232 31.7392 218.74 31.6688C218.248 31.5985 217.748 31.7266 217.35 32.025L214.275 34.3325L212.8 30.775C210.875 26.125 209.8 23.55 207.425 21.95C205.05 20.4 202.275 20.4 197.225 20.4H189.723C184.673 20.4 181.898 20.4 179.525 21.975C177.19 23.525 176.135 26.0375 174.25 30.54L174.15 30.775L172.675 34.33L169.6 32.025C169.202 31.7266 168.702 31.5985 168.21 31.6688C167.718 31.7392 167.273 32.0022 166.975 32.4C166.677 32.7978 166.549 33.2979 166.619 33.7902C166.689 34.2825 166.952 34.7266 167.35 35.025L170.925 37.7075L170.275 38.675L170.15 38.8625C168.575 41.225 167.613 42.67 167.1 44.35C166.6 46.05 166.6 47.75 166.6 50.825V58.525C166.6 59.9 166.6 60.65 166.925 61.425C167.375 62.525 168.225 63.375 169.275 63.8C170.1 64.15 170.875 64.15 172.223 64.15C173.573 64.15 174.375 64.15 175.148 63.8C176.248 63.35 177.098 62.525 177.523 61.45C177.873 60.65 177.873 59.9 177.873 58.525C177.873 57.875 177.873 57.2 177.923 57.025C177.998 56.875 178.098 56.775 178.273 56.7C178.448 56.65 179.098 56.65 179.748 56.65H207.248C207.898 56.65 208.548 56.65 208.748 56.7C208.898 56.775 208.998 56.875 209.073 57.025C209.123 57.2 209.123 57.875 209.123 58.525C209.123 59.9 209.123 60.65 209.448 61.425C209.898 62.525 210.75 63.375 211.8 63.8ZM174.313 39.4225L177.425 40.2C177.95 40.325 178.525 40.4 179.1 40.4H207.85C208.425 40.4 209 40.325 209.525 40.2L212.66 39.4175L213.575 40.775C215.15 43.15 215.925 44.325 216.275 45.45C216.625 46.6 216.625 48.025 216.625 50.825V58.525C216.625 59.175 216.625 59.85 216.575 60.025C216.5 60.175 216.4 60.275 216.225 60.35C215.9 60.45 213.65 60.475 213.25 60.35C213.107 60.283 212.992 60.168 212.925 60.025C212.875 59.85 212.875 59.175 212.875 58.525C212.875 57.15 212.875 56.4 212.55 55.625C212.337 55.0924 212.019 54.6078 211.615 54.1999C211.212 53.792 210.73 53.4691 210.2 53.25C209.375 52.9 208.575 52.9 207.253 52.9H179.75C178.4 52.9 177.6 52.9 176.828 53.25C175.728 53.7 174.878 54.525 174.453 55.6C174.103 56.4 174.103 57.15 174.103 58.525C174.103 59.175 174.103 59.85 174.053 60.025C173.978 60.175 173.878 60.275 173.703 60.35C173.378 60.45 171.128 60.475 170.728 60.35C170.584 60.283 170.469 60.168 170.403 60.025C170.353 59.85 170.353 59.175 170.353 58.525V50.825C170.353 48 170.353 46.6 170.703 45.45C171.053 44.325 171.828 43.15 173.403 40.775L174.313 39.4225ZM176.063 35.9875L177.625 32.225C179.475 27.825 180.275 26.025 181.625 25.1C183.05 24.15 185.275 24.15 189.745 24.15H197.25C201.7 24.15 203.95 24.15 205.35 25.075C206.725 26 207.525 27.825 209.35 32.225L210.91 35.98L208.6 36.55C208.35 36.625 208.1 36.65 207.85 36.65H179.075C178.825 36.65 178.575 36.625 178.325 36.55L176.063 35.9875ZM208.5 49.8C207.125 49.8 206 48.675 206 47.3C206 45.925 207.125 44.8 208.5 44.8C209.875 44.8 211 45.9 211 47.3C211 48.7 209.875 49.825 208.5 49.825V49.8ZM176 47.3C176 48.675 177.125 49.8 178.5 49.8V49.825C179.875 49.825 181 48.7 181 47.3C181 45.9 179.875 44.8 178.5 44.8C177.125 44.8 176 45.925 176 47.3Z"/>
</mask>
<path d="M211.8 63.8C212.62 64.15 213.415 64.15 214.725 64.15C216.06 64.15 216.855 64.15 217.625 63.8C218.725 63.35 219.575 62.525 220 61.45C220.35 60.65 220.35 59.9 220.35 58.525V50.825C220.35 47.75 220.35 46.05 219.85 44.35C219.338 42.67 218.375 41.225 216.8 38.8625L216.675 38.675L216.025 37.71L219.6 35.025C219.998 34.7266 220.261 34.2825 220.331 33.7902C220.402 33.2979 220.273 32.7978 219.975 32.4C219.677 32.0022 219.232 31.7392 218.74 31.6688C218.248 31.5985 217.748 31.7266 217.35 32.025L214.275 34.3325L212.8 30.775C210.875 26.125 209.8 23.55 207.425 21.95C205.05 20.4 202.275 20.4 197.225 20.4H189.723C184.673 20.4 181.898 20.4 179.525 21.975C177.19 23.525 176.135 26.0375 174.25 30.54L174.15 30.775L172.675 34.33L169.6 32.025C169.202 31.7266 168.702 31.5985 168.21 31.6688C167.718 31.7392 167.273 32.0022 166.975 32.4C166.677 32.7978 166.549 33.2979 166.619 33.7902C166.689 34.2825 166.952 34.7266 167.35 35.025L170.925 37.7075L170.275 38.675L170.15 38.8625C168.575 41.225 167.613 42.67 167.1 44.35C166.6 46.05 166.6 47.75 166.6 50.825V58.525C166.6 59.9 166.6 60.65 166.925 61.425C167.375 62.525 168.225 63.375 169.275 63.8C170.1 64.15 170.875 64.15 172.223 64.15C173.573 64.15 174.375 64.15 175.148 63.8C176.248 63.35 177.098 62.525 177.523 61.45C177.873 60.65 177.873 59.9 177.873 58.525C177.873 57.875 177.873 57.2 177.923 57.025C177.998 56.875 178.098 56.775 178.273 56.7C178.448 56.65 179.098 56.65 179.748 56.65H207.248C207.898 56.65 208.548 56.65 208.748 56.7C208.898 56.775 208.998 56.875 209.073 57.025C209.123 57.2 209.123 57.875 209.123 58.525C209.123 59.9 209.123 60.65 209.448 61.425C209.898 62.525 210.75 63.375 211.8 63.8ZM174.313 39.4225L177.425 40.2C177.95 40.325 178.525 40.4 179.1 40.4H207.85C208.425 40.4 209 40.325 209.525 40.2L212.66 39.4175L213.575 40.775C215.15 43.15 215.925 44.325 216.275 45.45C216.625 46.6 216.625 48.025 216.625 50.825V58.525C216.625 59.175 216.625 59.85 216.575 60.025C216.5 60.175 216.4 60.275 216.225 60.35C215.9 60.45 213.65 60.475 213.25 60.35C213.107 60.283 212.992 60.168 212.925 60.025C212.875 59.85 212.875 59.175 212.875 58.525C212.875 57.15 212.875 56.4 212.55 55.625C212.337 55.0924 212.019 54.6078 211.615 54.1999C211.212 53.792 210.73 53.4691 210.2 53.25C209.375 52.9 208.575 52.9 207.253 52.9H179.75C178.4 52.9 177.6 52.9 176.828 53.25C175.728 53.7 174.878 54.525 174.453 55.6C174.103 56.4 174.103 57.15 174.103 58.525C174.103 59.175 174.103 59.85 174.053 60.025C173.978 60.175 173.878 60.275 173.703 60.35C173.378 60.45 171.128 60.475 170.728 60.35C170.584 60.283 170.469 60.168 170.403 60.025C170.353 59.85 170.353 59.175 170.353 58.525V50.825C170.353 48 170.353 46.6 170.703 45.45C171.053 44.325 171.828 43.15 173.403 40.775L174.313 39.4225ZM176.063 35.9875L177.625 32.225C179.475 27.825 180.275 26.025 181.625 25.1C183.05 24.15 185.275 24.15 189.745 24.15H197.25C201.7 24.15 203.95 24.15 205.35 25.075C206.725 26 207.525 27.825 209.35 32.225L210.91 35.98L208.6 36.55C208.35 36.625 208.1 36.65 207.85 36.65H179.075C178.825 36.65 178.575 36.625 178.325 36.55L176.063 35.9875ZM208.5 49.8C207.125 49.8 206 48.675 206 47.3C206 45.925 207.125 44.8 208.5 44.8C209.875 44.8 211 45.9 211 47.3C211 48.7 209.875 49.825 208.5 49.825V49.8ZM176 47.3C176 48.675 177.125 49.8 178.5 49.8V49.825C179.875 49.825 181 48.7 181 47.3C181 45.9 179.875 44.8 178.5 44.8C177.125 44.8 176 45.925 176 47.3Z" fill="#FAFF01" stroke="#1D1D1D" stroke-width="3" mask="url(#path-21-inside-1_35_3)"/>
<rect x="103" y="63" width="180" height="1" fill="url(#paint8_linear_35_3)"/>
</g>
<defs>
<linearGradient id="paint0_linear_35_3" x1="0" y1="629" x2="386" y2="629" gradientUnits="userSpaceOnUse">
<stop stop-color="#1D1D1D"/>
<stop offset="0.505" stop-color="#CCCF02"/>
<stop offset="1" stop-color="#1D1D1D"/>
</linearGradient>
<linearGradient id="paint1_linear_35_3" x1="33" y1="350" x2="353" y2="350" gradientUnits="userSpaceOnUse">
<stop stop-color="#1D1D1D"/>
<stop offset="0.505" stop-color="#CCCF02"/>
<stop offset="1" stop-color="#1D1D1D"/>
</linearGradient>
<linearGradient id="paint2_linear_35_3" x1="33" y1="492" x2="353" y2="492" gradientUnits="userSpaceOnUse">
<stop stop-color="#1D1D1D"/>
<stop offset="0.505" stop-color="#CCCF02"/>
<stop offset="1" stop-color="#1D1D1D"/>
</linearGradient>
<linearGradient id="paint3_linear_35_3" x1="132.5" y1="166" x2="132.5" y2="277" gradientUnits="userSpaceOnUse">
<stop stop-color="#1D1D1D"/>
<stop offset="0.5" stop-color="#FBFE02"/>
<stop offset="1" stop-color="#1D1D1D"/>
</linearGradient>
<linearGradient id="paint4_linear_35_3" x1="252.5" y1="166" x2="252.5" y2="277" gradientUnits="userSpaceOnUse">
<stop stop-color="#1D1D1D"/>
<stop offset="0.5" stop-color="#FBFE02"/>
<stop offset="1" stop-color="#1D1D1D"/>
</linearGradient>
<linearGradient id="paint5_linear_35_3" x1="72" y1="181" x2="72" y2="281" gradientUnits="userSpaceOnUse">
<stop stop-color="#FAFF01" stop-opacity="0"/>
<stop offset="1" stop-color="#FBFE02" stop-opacity="0.1"/>
</linearGradient>
<linearGradient id="paint6_linear_35_3" x1="193" y1="181" x2="193" y2="281" gradientUnits="userSpaceOnUse">
<stop stop-color="#FAFF01" stop-opacity="0"/>
<stop offset="1" stop-color="#FBFE02" stop-opacity="0.1"/>
</linearGradient>
<linearGradient id="paint7_linear_35_3" x1="313" y1="181" x2="313" y2="281" gradientUnits="userSpaceOnUse">
<stop stop-color="#FAFF01" stop-opacity="0"/>
<stop offset="1" stop-color="#FBFE02" stop-opacity="0.1"/>
</linearGradient>
<linearGradient id="paint8_linear_35_3" x1="103" y1="63.5" x2="283" y2="63.5" gradientUnits="userSpaceOnUse">
<stop stop-color="#1D1D1D"/>
<stop offset="0.505" stop-color="#CCCF02"/>
<stop offset="1" stop-color="#1D1D1D"/>
</linearGradient>
<clipPath id="clip0_35_3">
<rect width="386" height="680" rx="40" fill="white"/>
</clipPath>
</defs>
</svg>
