<svg width="639" height="141" viewBox="0 0 639 141" fill="none" xmlns="http://www.w3.org/2000/svg">
<path d="M0.526314 39.2895C0.526314 17.794 17.9519 0.368408 39.4474 0.368408V0.368408C60.9429 0.368408 78.3684 17.7939 78.3684 39.2894V143.526H0.526314V39.2895Z" fill="url(#paint0_linear_19_183)"/>
<path d="M209.895 76.8683C209.895 55.3729 227.32 37.9474 248.816 37.9474V37.9474C270.311 37.9474 287.737 55.3729 287.737 76.8684V142.632H209.895V76.8683Z" fill="url(#paint1_linear_19_183)"/>
<path d="M202.737 105.053C202.737 93.6872 211.95 84.4737 223.316 84.4737V84.4737C234.681 84.4737 243.895 93.6872 243.895 105.053V142.632H202.737V105.053Z" fill="url(#paint2_linear_19_183)"/>
<path d="M47.9474 89.3947C47.9474 70.3699 63.37 54.9474 82.3947 54.9474V54.9474C101.419 54.9474 116.842 70.37 116.842 89.3947V142.632H47.9474V89.3947Z" fill="url(#paint3_linear_19_183)"/>
<path d="M364.684 52.2632C364.684 39.9095 374.699 29.8947 387.053 29.8947V29.8947C399.406 29.8947 409.421 39.9094 409.421 52.2632V129.211H364.684V52.2632Z" fill="url(#paint4_linear_19_183)"/>
<path d="M396.895 64.3421C396.895 51.7413 407.11 41.5263 419.711 41.5263V41.5263C432.311 41.5263 442.526 51.7413 442.526 64.3421V129.211H396.895V64.3421Z" fill="url(#paint5_linear_19_183)"/>
<path d="M426.421 89.3947C426.421 76.7939 436.636 66.5789 449.237 66.5789V66.5789C461.838 66.5789 472.053 76.7939 472.053 89.3947V129.211H426.421V89.3947Z" fill="url(#paint6_linear_19_183)"/>
<path d="M541.842 66.1315C541.842 44.636 559.268 27.2105 580.763 27.2105V27.2105C602.259 27.2105 619.684 44.6361 619.684 66.1316V131.895H541.842V66.1315Z" fill="url(#paint7_linear_19_183)"/>
<path d="M521.263 105.947C521.263 94.5819 530.477 85.3684 541.842 85.3684V85.3684C553.208 85.3684 562.421 94.5819 562.421 105.947V143.526H521.263V105.947Z" fill="url(#paint8_linear_19_183)"/>
<path d="M597.316 78.2105C597.316 66.8451 606.529 57.6316 617.895 57.6316V57.6316C629.26 57.6316 638.474 66.8451 638.474 78.2105V129.211H597.316V78.2105Z" fill="url(#paint9_linear_19_183)"/>
<defs>
<linearGradient id="paint0_linear_19_183" x1="39.4474" y1="0.368408" x2="39.4474" y2="143.526" gradientUnits="userSpaceOnUse">
<stop stop-color="white" stop-opacity="0.5"/>
<stop offset="1" stop-color="#244A66" stop-opacity="0.1"/>
</linearGradient>
<linearGradient id="paint1_linear_19_183" x1="248.816" y1="37.9474" x2="248.816" y2="142.632" gradientUnits="userSpaceOnUse">
<stop stop-color="white" stop-opacity="0.5"/>
<stop offset="1" stop-color="#244A66" stop-opacity="0.1"/>
</linearGradient>
<linearGradient id="paint2_linear_19_183" x1="223.316" y1="84.4737" x2="223.316" y2="142.632" gradientUnits="userSpaceOnUse">
<stop stop-color="white" stop-opacity="0.5"/>
<stop offset="1" stop-color="#244A66" stop-opacity="0.1"/>
</linearGradient>
<linearGradient id="paint3_linear_19_183" x1="82.3947" y1="54.9474" x2="82.3947" y2="142.632" gradientUnits="userSpaceOnUse">
<stop stop-color="white" stop-opacity="0.5"/>
<stop offset="1" stop-color="#244A66" stop-opacity="0.1"/>
</linearGradient>
<linearGradient id="paint4_linear_19_183" x1="387.053" y1="29.8947" x2="387.053" y2="129.211" gradientUnits="userSpaceOnUse">
<stop stop-color="white" stop-opacity="0.5"/>
<stop offset="1" stop-color="#244A66" stop-opacity="0.1"/>
</linearGradient>
<linearGradient id="paint5_linear_19_183" x1="419.711" y1="41.5263" x2="419.711" y2="129.211" gradientUnits="userSpaceOnUse">
<stop stop-color="white" stop-opacity="0.5"/>
<stop offset="1" stop-color="#244A66" stop-opacity="0.1"/>
</linearGradient>
<linearGradient id="paint6_linear_19_183" x1="449.237" y1="66.5789" x2="449.237" y2="129.211" gradientUnits="userSpaceOnUse">
<stop stop-color="white" stop-opacity="0.5"/>
<stop offset="1" stop-color="#244A66" stop-opacity="0.1"/>
</linearGradient>
<linearGradient id="paint7_linear_19_183" x1="580.763" y1="27.2105" x2="580.763" y2="131.895" gradientUnits="userSpaceOnUse">
<stop stop-color="white" stop-opacity="0.5"/>
<stop offset="1" stop-color="#244A66" stop-opacity="0.1"/>
</linearGradient>
<linearGradient id="paint8_linear_19_183" x1="541.842" y1="85.3684" x2="541.842" y2="143.526" gradientUnits="userSpaceOnUse">
<stop stop-color="white" stop-opacity="0.5"/>
<stop offset="1" stop-color="#244A66" stop-opacity="0.1"/>
</linearGradient>
<linearGradient id="paint9_linear_19_183" x1="617.895" y1="57.6316" x2="617.895" y2="129.211" gradientUnits="userSpaceOnUse">
<stop stop-color="white" stop-opacity="0.5"/>
<stop offset="1" stop-color="#244A66" stop-opacity="0.1"/>
</linearGradient>
</defs>
</svg>
