<svg width="680" height="45" viewBox="0 0 680 45" fill="none" xmlns="http://www.w3.org/2000/svg">
<rect y="20.6842" width="340" height="26.8421" fill="#785738"/>
<rect x="7.15789" y="0.10527" width="1.78947" height="21.4737" rx="0.894737" fill="#73471F"/>
<rect x="7.15789" y="0.10527" width="1.78947" height="21.4737" rx="0.894737" fill="#73471F"/>
<rect x="7.15789" y="0.10527" width="1.78947" height="21.4737" rx="0.894737" fill="#73471F"/>
<rect x="25.0526" y="8.1579" width="1.78947" height="13.4211" rx="0.894737" fill="#73471F"/>
<rect x="25.0526" y="8.1579" width="1.78947" height="13.4211" rx="0.894737" fill="#73471F"/>
<rect x="25.0526" y="8.1579" width="1.78947" height="13.4211" rx="0.894737" fill="#73471F"/>
<rect x="42.9474" y="0.10527" width="1.78947" height="21.4737" rx="0.894737" fill="#73471F"/>
<rect x="42.9474" y="0.10527" width="1.78947" height="21.4737" rx="0.894737" fill="#73471F"/>
<rect x="42.9474" y="0.10527" width="1.78947" height="21.4737" rx="0.894737" fill="#73471F"/>
<rect x="60.8421" y="7.26315" width="1.78947" height="14.3158" rx="0.894737" fill="#73471F"/>
<rect x="60.8421" y="7.26315" width="1.78947" height="14.3158" rx="0.894737" fill="#73471F"/>
<rect x="60.8421" y="7.26315" width="1.78947" height="14.3158" rx="0.894737" fill="#73471F"/>
<rect x="78.7368" y="0.10527" width="1.78947" height="21.4737" rx="0.894737" fill="#73471F"/>
<rect x="78.7368" y="0.10527" width="1.78947" height="21.4737" rx="0.894737" fill="#73471F"/>
<rect x="78.7368" y="0.10527" width="1.78947" height="21.4737" rx="0.894737" fill="#73471F"/>
<rect x="96.6316" y="7.26315" width="1.78947" height="14.3158" rx="0.894737" fill="#73471F"/>
<rect x="96.6316" y="7.26315" width="1.78947" height="14.3158" rx="0.894737" fill="#73471F"/>
<rect x="96.6316" y="7.26315" width="1.78947" height="14.3158" rx="0.894737" fill="#73471F"/>
<rect x="114.526" y="0.10527" width="1.78947" height="21.4737" rx="0.894737" fill="#73471F"/>
<rect x="114.526" y="0.10527" width="1.78947" height="21.4737" rx="0.894737" fill="#73471F"/>
<rect x="114.526" y="0.10527" width="1.78947" height="21.4737" rx="0.894737" fill="#73471F"/>
<rect x="132.421" y="7.26315" width="1.78947" height="14.3158" rx="0.894737" fill="#73471F"/>
<rect x="132.421" y="7.26315" width="1.78947" height="14.3158" rx="0.894737" fill="#73471F"/>
<rect x="132.421" y="7.26315" width="1.78947" height="14.3158" rx="0.894737" fill="#73471F"/>
<rect x="150.316" y="0.10527" width="1.78947" height="21.4737" rx="0.894737" fill="#73471F"/>
<rect x="150.316" y="0.10527" width="1.78947" height="21.4737" rx="0.894737" fill="#73471F"/>
<rect x="150.316" y="0.10527" width="1.78947" height="21.4737" rx="0.894737" fill="#73471F"/>
<rect x="168.211" y="7.26315" width="1.78947" height="14.3158" rx="0.894737" fill="#73471F"/>
<rect x="168.211" y="7.26315" width="1.78947" height="14.3158" rx="0.894737" fill="#73471F"/>
<rect x="168.211" y="7.26315" width="1.78947" height="14.3158" rx="0.894737" fill="#73471F"/>
<rect x="186.105" y="0.10527" width="1.78947" height="21.4737" rx="0.894737" fill="#73471F"/>
<rect x="186.105" y="0.10527" width="1.78947" height="21.4737" rx="0.894737" fill="#73471F"/>
<rect x="186.105" y="0.10527" width="1.78947" height="21.4737" rx="0.894737" fill="#73471F"/>
<rect x="204" y="7.26315" width="1.78947" height="14.3158" rx="0.894737" fill="#73471F"/>
<rect x="204" y="7.26315" width="1.78947" height="14.3158" rx="0.894737" fill="#73471F"/>
<rect x="204" y="7.26315" width="1.78947" height="14.3158" rx="0.894737" fill="#73471F"/>
<rect x="221.895" y="0.10527" width="1.78947" height="21.4737" rx="0.894737" fill="#73471F"/>
<rect x="221.895" y="0.10527" width="1.78947" height="21.4737" rx="0.894737" fill="#73471F"/>
<rect x="221.895" y="0.10527" width="1.78947" height="21.4737" rx="0.894737" fill="#73471F"/>
<rect x="239.789" y="7.26315" width="1.78947" height="14.3158" rx="0.894737" fill="#73471F"/>
<rect x="239.789" y="7.26315" width="1.78947" height="14.3158" rx="0.894737" fill="#73471F"/>
<rect x="239.789" y="7.26315" width="1.78947" height="14.3158" rx="0.894737" fill="#73471F"/>
<rect x="257.684" y="0.10527" width="1.78947" height="21.4737" rx="0.894737" fill="#73471F"/>
<rect x="257.684" y="0.10527" width="1.78947" height="21.4737" rx="0.894737" fill="#73471F"/>
<rect x="257.684" y="0.10527" width="1.78947" height="21.4737" rx="0.894737" fill="#73471F"/>
<rect x="275.579" y="7.26315" width="1.78947" height="14.3158" rx="0.894737" fill="#73471F"/>
<rect x="275.579" y="7.26315" width="1.78947" height="14.3158" rx="0.894737" fill="#73471F"/>
<rect x="275.579" y="7.26315" width="1.78947" height="14.3158" rx="0.894737" fill="#73471F"/>
<rect x="293.474" y="0.10527" width="1.78947" height="21.4737" rx="0.894737" fill="#73471F"/>
<rect x="293.474" y="0.10527" width="1.78947" height="21.4737" rx="0.894737" fill="#73471F"/>
<rect x="293.474" y="0.10527" width="1.78947" height="21.4737" rx="0.894737" fill="#73471F"/>
<rect x="329.263" y="0.10527" width="1.78947" height="21.4737" rx="0.894737" fill="#73471F"/>
<rect x="329.263" y="0.10527" width="1.78947" height="21.4737" rx="0.894737" fill="#73471F"/>
<rect x="329.263" y="0.10527" width="1.78947" height="21.4737" rx="0.894737" fill="#73471F"/>
<rect x="311.368" y="7.26315" width="1.78947" height="14.3158" rx="0.894737" fill="#73471F"/>
<rect x="311.368" y="7.26315" width="1.78947" height="14.3158" rx="0.894737" fill="#73471F"/>
<rect x="311.368" y="7.26315" width="1.78947" height="14.3158" rx="0.894737" fill="#73471F"/>
<rect y="14.4211" width="340" height="1.78947" fill="#73471F"/>
<rect y="7.26315" width="340" height="1.78947" fill="#73471F"/>
<rect x="340" y="20.6842" width="340" height="26.8421" fill="#785738"/>
<rect x="347.158" y="0.10527" width="1.78947" height="21.4737" rx="0.894737" fill="#73471F"/>
<rect x="347.158" y="0.10527" width="1.78947" height="21.4737" rx="0.894737" fill="#73471F"/>
<rect x="347.158" y="0.10527" width="1.78947" height="21.4737" rx="0.894737" fill="#73471F"/>
<rect x="365.053" y="8.1579" width="1.78947" height="13.4211" rx="0.894737" fill="#73471F"/>
<rect x="365.053" y="8.1579" width="1.78947" height="13.4211" rx="0.894737" fill="#73471F"/>
<rect x="365.053" y="8.1579" width="1.78947" height="13.4211" rx="0.894737" fill="#73471F"/>
<rect x="382.947" y="0.10527" width="1.78947" height="21.4737" rx="0.894737" fill="#73471F"/>
<rect x="382.947" y="0.10527" width="1.78947" height="21.4737" rx="0.894737" fill="#73471F"/>
<rect x="382.947" y="0.10527" width="1.78947" height="21.4737" rx="0.894737" fill="#73471F"/>
<rect x="400.842" y="7.26315" width="1.78947" height="14.3158" rx="0.894737" fill="#73471F"/>
<rect x="400.842" y="7.26315" width="1.78947" height="14.3158" rx="0.894737" fill="#73471F"/>
<rect x="400.842" y="7.26315" width="1.78947" height="14.3158" rx="0.894737" fill="#73471F"/>
<rect x="418.737" y="0.10527" width="1.78947" height="21.4737" rx="0.894737" fill="#73471F"/>
<rect x="418.737" y="0.10527" width="1.78947" height="21.4737" rx="0.894737" fill="#73471F"/>
<rect x="418.737" y="0.10527" width="1.78947" height="21.4737" rx="0.894737" fill="#73471F"/>
<rect x="436.632" y="7.26315" width="1.78947" height="14.3158" rx="0.894737" fill="#73471F"/>
<rect x="436.632" y="7.26315" width="1.78947" height="14.3158" rx="0.894737" fill="#73471F"/>
<rect x="436.632" y="7.26315" width="1.78947" height="14.3158" rx="0.894737" fill="#73471F"/>
<rect x="454.526" y="0.10527" width="1.78947" height="21.4737" rx="0.894737" fill="#73471F"/>
<rect x="454.526" y="0.10527" width="1.78947" height="21.4737" rx="0.894737" fill="#73471F"/>
<rect x="454.526" y="0.10527" width="1.78947" height="21.4737" rx="0.894737" fill="#73471F"/>
<rect x="472.421" y="7.26315" width="1.78947" height="14.3158" rx="0.894737" fill="#73471F"/>
<rect x="472.421" y="7.26315" width="1.78947" height="14.3158" rx="0.894737" fill="#73471F"/>
<rect x="472.421" y="7.26315" width="1.78947" height="14.3158" rx="0.894737" fill="#73471F"/>
<rect x="490.316" y="0.10527" width="1.78947" height="21.4737" rx="0.894737" fill="#73471F"/>
<rect x="490.316" y="0.10527" width="1.78947" height="21.4737" rx="0.894737" fill="#73471F"/>
<rect x="490.316" y="0.10527" width="1.78947" height="21.4737" rx="0.894737" fill="#73471F"/>
<rect x="508.211" y="7.26315" width="1.78947" height="14.3158" rx="0.894737" fill="#73471F"/>
<rect x="508.211" y="7.26315" width="1.78947" height="14.3158" rx="0.894737" fill="#73471F"/>
<rect x="508.211" y="7.26315" width="1.78947" height="14.3158" rx="0.894737" fill="#73471F"/>
<rect x="526.105" y="0.10527" width="1.78947" height="21.4737" rx="0.894737" fill="#73471F"/>
<rect x="526.105" y="0.10527" width="1.78947" height="21.4737" rx="0.894737" fill="#73471F"/>
<rect x="526.105" y="0.10527" width="1.78947" height="21.4737" rx="0.894737" fill="#73471F"/>
<rect x="544" y="7.26315" width="1.78947" height="14.3158" rx="0.894737" fill="#73471F"/>
<rect x="544" y="7.26315" width="1.78947" height="14.3158" rx="0.894737" fill="#73471F"/>
<rect x="544" y="7.26315" width="1.78947" height="14.3158" rx="0.894737" fill="#73471F"/>
<rect x="561.895" y="0.10527" width="1.78947" height="21.4737" rx="0.894737" fill="#73471F"/>
<rect x="561.895" y="0.10527" width="1.78947" height="21.4737" rx="0.894737" fill="#73471F"/>
<rect x="561.895" y="0.10527" width="1.78947" height="21.4737" rx="0.894737" fill="#73471F"/>
<rect x="579.789" y="7.26315" width="1.78947" height="14.3158" rx="0.894737" fill="#73471F"/>
<rect x="579.789" y="7.26315" width="1.78947" height="14.3158" rx="0.894737" fill="#73471F"/>
<rect x="579.789" y="7.26315" width="1.78947" height="14.3158" rx="0.894737" fill="#73471F"/>
<rect x="597.684" y="0.10527" width="1.78947" height="21.4737" rx="0.894737" fill="#73471F"/>
<rect x="597.684" y="0.10527" width="1.78947" height="21.4737" rx="0.894737" fill="#73471F"/>
<rect x="597.684" y="0.10527" width="1.78947" height="21.4737" rx="0.894737" fill="#73471F"/>
<rect x="615.579" y="7.26315" width="1.78947" height="14.3158" rx="0.894737" fill="#73471F"/>
<rect x="615.579" y="7.26315" width="1.78947" height="14.3158" rx="0.894737" fill="#73471F"/>
<rect x="615.579" y="7.26315" width="1.78947" height="14.3158" rx="0.894737" fill="#73471F"/>
<rect x="633.474" y="0.10527" width="1.78947" height="21.4737" rx="0.894737" fill="#73471F"/>
<rect x="633.474" y="0.10527" width="1.78947" height="21.4737" rx="0.894737" fill="#73471F"/>
<rect x="633.474" y="0.10527" width="1.78947" height="21.4737" rx="0.894737" fill="#73471F"/>
<rect x="669.263" y="0.10527" width="1.78947" height="21.4737" rx="0.894737" fill="#73471F"/>
<rect x="669.263" y="0.10527" width="1.78947" height="21.4737" rx="0.894737" fill="#73471F"/>
<rect x="669.263" y="0.10527" width="1.78947" height="21.4737" rx="0.894737" fill="#73471F"/>
<rect x="651.368" y="7.26315" width="1.78947" height="14.3158" rx="0.894737" fill="#73471F"/>
<rect x="651.368" y="7.26315" width="1.78947" height="14.3158" rx="0.894737" fill="#73471F"/>
<rect x="651.368" y="7.26315" width="1.78947" height="14.3158" rx="0.894737" fill="#73471F"/>
<rect x="340" y="14.4211" width="340" height="1.78947" fill="#73471F"/>
<rect x="340" y="7.26315" width="340" height="1.78947" fill="#73471F"/>
</svg>
