<svg width="680" height="229" viewBox="0 0 680 229" fill="none" xmlns="http://www.w3.org/2000/svg">
<rect y="-0.118774" width="340" height="229.119" fill="url(#paint0_linear_19_158)"/>
<rect width="0.891311" height="0.89306" transform="matrix(0.687037 0.726622 -0.743128 0.669149 69.518 22.8602)" fill="white" fill-opacity="0.6"/>
<rect width="2.8178" height="2.82333" transform="matrix(0.687037 0.726622 -0.743128 0.669149 98.0659 22.8602)" fill="white" fill-opacity="0.6"/>
<rect width="0.939268" height="0.941111" transform="matrix(0.687037 0.726622 -0.743128 0.669149 79.034 4.28735)" fill="white" fill-opacity="0.6"/>
<rect width="0.939268" height="0.941111" transform="matrix(0.687037 0.726622 -0.743128 0.669149 79.034 50.7193)" fill="white" fill-opacity="0.6"/>
<rect width="0.939268" height="0.941111" transform="matrix(0.687037 0.726622 -0.743128 0.669149 98.0659 4.28735)" fill="white" fill-opacity="0.6"/>
<rect width="0.939268" height="0.941111" transform="matrix(0.687037 0.726622 -0.743128 0.669149 50.4859 22.8602)" fill="white" fill-opacity="0.6"/>
<rect width="0.939268" height="0.941111" transform="matrix(0.687037 0.726622 -0.743128 0.669149 79.034 87.865)" fill="white" fill-opacity="0.6"/>
<rect width="0.939268" height="0.941111" transform="matrix(0.687037 0.726622 -0.743128 0.669149 31.454 4.28735)" fill="white" fill-opacity="0.6"/>
<rect width="0.939268" height="0.941111" transform="matrix(0.687037 0.726622 -0.743128 0.669149 31.454 78.5786)" fill="white" fill-opacity="0.6"/>
<rect width="0.939268" height="0.941111" transform="matrix(0.687037 0.726622 -0.743128 0.669149 107.582 134.297)" fill="white" fill-opacity="0.6"/>
<rect width="0.939268" height="0.941111" transform="matrix(0.687037 0.726622 -0.743128 0.669149 155.162 22.8602)" fill="white" fill-opacity="0.6"/>
<rect width="0.939268" height="0.941111" transform="matrix(0.687037 0.726622 -0.743128 0.669149 117.098 41.433)" fill="white" fill-opacity="0.6"/>
<rect width="0.939268" height="0.941111" transform="matrix(0.687037 0.726622 -0.743128 0.669149 202.742 13.5737)" fill="white" fill-opacity="0.6"/>
<rect width="0.939268" height="0.941111" transform="matrix(0.687037 0.726622 -0.743128 0.669149 107.582 78.5786)" fill="white" fill-opacity="0.6"/>
<rect width="0.939268" height="0.941111" transform="matrix(0.687037 0.726622 -0.743128 0.669149 174.194 50.7193)" fill="white" fill-opacity="0.6"/>
<rect width="0.939268" height="0.941111" transform="matrix(0.687037 0.726622 -0.743128 0.669149 155.162 106.438)" fill="white" fill-opacity="0.6"/>
<rect width="0.939268" height="0.941111" transform="matrix(0.687037 0.726622 -0.743128 0.669149 250.322 4.28735)" fill="white" fill-opacity="0.6"/>
<rect width="0.939268" height="0.941111" transform="matrix(0.687037 0.726622 -0.743128 0.669149 193.226 78.5786)" fill="white" fill-opacity="0.6"/>
<rect width="0.939268" height="0.941111" transform="matrix(0.687037 0.726622 -0.743128 0.669149 221.774 41.433)" fill="white" fill-opacity="0.6"/>
<rect width="0.939268" height="0.941111" transform="matrix(0.687037 0.726622 -0.743128 0.669149 98.0659 97.1514)" fill="white" fill-opacity="0.6"/>
<rect width="0.939268" height="0.941111" transform="matrix(0.687037 0.726622 -0.743128 0.669149 155.162 4.28735)" fill="white" fill-opacity="0.6"/>
<rect width="0.939268" height="0.941111" transform="matrix(0.687037 0.726622 -0.743128 0.669149 50.4859 50.7193)" fill="white" fill-opacity="0.6"/>
<rect width="0.939268" height="0.941111" transform="matrix(0.687037 0.726622 -0.743128 0.669149 12.4216 41.433)" fill="white" fill-opacity="0.6"/>
<rect width="0.939268" height="0.941111" transform="matrix(0.687037 0.726622 -0.743128 0.669149 12.4216 97.1514)" fill="white" fill-opacity="0.6"/>
<rect width="0.939268" height="0.941111" transform="matrix(0.687037 0.726622 -0.743128 0.669149 250.322 22.8602)" fill="white" fill-opacity="0.6"/>
<rect width="0.939268" height="0.941111" transform="matrix(0.687037 0.726622 -0.743128 0.669149 126.614 60.0058)" fill="white" fill-opacity="0.6"/>
<rect width="0.939268" height="0.941111" transform="matrix(0.687037 0.726622 -0.743128 0.669149 164.678 125.011)" fill="white" fill-opacity="0.6"/>
<rect width="0.939268" height="0.941111" transform="matrix(0.687037 0.726622 -0.743128 0.669149 117.098 22.8602)" fill="white" fill-opacity="0.6"/>
<rect width="0.939268" height="0.941111" transform="matrix(0.687037 0.726622 -0.743128 0.669149 79.034 69.2922)" fill="white" fill-opacity="0.6"/>
<rect width="0.939268" height="0.941111" transform="matrix(0.687037 0.726622 -0.743128 0.669149 221.774 125.011)" fill="white" fill-opacity="0.6"/>
<rect width="0.939268" height="0.941111" transform="matrix(0.687037 0.726622 -0.743128 0.669149 174.194 97.1514)" fill="white" fill-opacity="0.6"/>
<rect width="2.8178" height="2.82333" transform="matrix(0.687037 0.726622 -0.743128 0.669149 98.0659 60.0058)" fill="white" fill-opacity="0.6"/>
<rect width="0.891311" height="0.89306" transform="matrix(0.687037 0.726622 -0.743128 0.669149 60.0016 69.2922)" fill="white" fill-opacity="0.6"/>
<rect width="0.891311" height="0.89306" transform="matrix(0.687037 0.726622 -0.743128 0.669149 164.678 78.5786)" fill="white" fill-opacity="0.6"/>
<rect width="2.8178" height="2.82333" transform="matrix(0.687037 0.726622 -0.743128 0.669149 193.226 41.433)" fill="white" fill-opacity="0.6"/>
<rect width="2.8178" height="2.82333" transform="matrix(0.687037 0.726622 -0.743128 0.669149 221.774 13.5737)" fill="white" fill-opacity="0.6"/>
<rect width="0.891311" height="0.89306" transform="matrix(0.687037 0.726622 -0.743128 0.669149 250.322 41.433)" fill="white" fill-opacity="0.6"/>
<rect width="2.8178" height="2.82333" transform="matrix(0.687037 0.726622 -0.743128 0.669149 221.774 106.438)" fill="white" fill-opacity="0.6"/>
<rect width="2.8178" height="2.82333" transform="matrix(0.687037 0.726622 -0.743128 0.669149 136.13 78.5786)" fill="white" fill-opacity="0.6"/>
<rect width="0.891311" height="0.89306" transform="matrix(0.687037 0.726622 -0.743128 0.669149 269.354 115.724)" fill="white" fill-opacity="0.6"/>
<rect width="0.891311" height="0.89306" transform="matrix(0.687037 0.726622 -0.743128 0.669149 174.194 13.5737)" fill="white" fill-opacity="0.6"/>
<rect width="2.8178" height="2.82333" transform="matrix(0.687037 0.726622 -0.743128 0.669149 31.454 41.433)" fill="white" fill-opacity="0.6"/>
<rect width="0.891311" height="0.89306" transform="matrix(0.687037 0.726622 -0.743128 0.669149 21.938 13.5737)" fill="white" fill-opacity="0.6"/>
<rect width="2.8178" height="2.82333" transform="matrix(0.687037 0.726622 -0.743128 0.669149 326.449 115.724)" fill="white" fill-opacity="0.6"/>
<rect width="0.891311" height="0.89306" transform="matrix(0.687037 0.726622 -0.743128 0.669149 279.841 69.2922)" fill="white" fill-opacity="0.6"/>
<rect width="2.8178" height="2.82333" transform="matrix(0.687037 0.726622 -0.743128 0.669149 278.87 22.8602)" fill="white" fill-opacity="0.6"/>
<rect width="2.8178" height="2.82333" transform="matrix(0.687037 0.726622 -0.743128 0.669149 326.449 50.7193)" fill="white" fill-opacity="0.6"/>
<rect width="0.891311" height="0.89306" transform="matrix(0.687037 0.726622 -0.743128 0.669149 326.172 78.3103)" fill="white" fill-opacity="0.6"/>
<rect width="0.892186" height="0.892186" transform="matrix(0.715688 0.698421 -0.715688 0.698421 221.639 69.2895)" fill="white" fill-opacity="0.6"/>
<rect width="0.892186" height="0.892186" transform="matrix(0.715688 0.698421 -0.715688 0.698421 116.963 106.435)" fill="white" fill-opacity="0.6"/>
<rect width="0.892186" height="0.892186" transform="matrix(0.715688 0.698421 -0.715688 0.698421 12.287 69.2895)" fill="white" fill-opacity="0.6"/>
<rect width="0.892186" height="0.892186" transform="matrix(0.715688 0.698421 -0.715688 0.698421 145.511 41.4303)" fill="white" fill-opacity="0.6"/>
<rect width="0.892186" height="0.892186" transform="matrix(0.715688 0.698421 -0.715688 0.698421 307.282 13.5711)" fill="white" fill-opacity="0.6"/>
<rect width="0.892186" height="0.892186" transform="matrix(0.715688 0.698421 -0.715688 0.698421 307.282 106.435)" fill="white" fill-opacity="0.6"/>
<rect x="340" y="-1" width="340" height="229.119" fill="url(#paint1_linear_19_158)"/>
<rect width="0.891311" height="0.89306" transform="matrix(0.687037 0.726622 -0.743128 0.669149 415.781 21.979)" fill="white" fill-opacity="0.6"/>
<rect width="2.8178" height="2.82333" transform="matrix(0.687037 0.726622 -0.743128 0.669149 444.329 21.979)" fill="white" fill-opacity="0.6"/>
<rect width="0.939268" height="0.941111" transform="matrix(0.687037 0.726622 -0.743128 0.669149 425.297 3.40613)" fill="white" fill-opacity="0.6"/>
<rect width="0.939268" height="0.941111" transform="matrix(0.687037 0.726622 -0.743128 0.669149 425.297 49.8381)" fill="white" fill-opacity="0.6"/>
<rect width="0.939268" height="0.941111" transform="matrix(0.687037 0.726622 -0.743128 0.669149 444.329 3.40613)" fill="white" fill-opacity="0.6"/>
<rect width="0.939268" height="0.941111" transform="matrix(0.687037 0.726622 -0.743128 0.669149 396.749 21.979)" fill="white" fill-opacity="0.6"/>
<rect width="0.939268" height="0.941111" transform="matrix(0.687037 0.726622 -0.743128 0.669149 425.297 86.9837)" fill="white" fill-opacity="0.6"/>
<rect width="0.939268" height="0.941111" transform="matrix(0.687037 0.726622 -0.743128 0.669149 377.717 3.40613)" fill="white" fill-opacity="0.6"/>
<rect width="0.939268" height="0.941111" transform="matrix(0.687037 0.726622 -0.743128 0.669149 377.717 77.6974)" fill="white" fill-opacity="0.6"/>
<rect width="0.939268" height="0.941111" transform="matrix(0.687037 0.726622 -0.743128 0.669149 453.845 133.416)" fill="white" fill-opacity="0.6"/>
<rect width="0.939268" height="0.941111" transform="matrix(0.687037 0.726622 -0.743128 0.669149 501.425 21.979)" fill="white" fill-opacity="0.6"/>
<rect width="0.939268" height="0.941111" transform="matrix(0.687037 0.726622 -0.743128 0.669149 463.361 40.5518)" fill="white" fill-opacity="0.6"/>
<rect width="0.939268" height="0.941111" transform="matrix(0.687037 0.726622 -0.743128 0.669149 549.005 12.6925)" fill="white" fill-opacity="0.6"/>
<rect width="0.939268" height="0.941111" transform="matrix(0.687037 0.726622 -0.743128 0.669149 453.845 77.6974)" fill="white" fill-opacity="0.6"/>
<rect width="0.939268" height="0.941111" transform="matrix(0.687037 0.726622 -0.743128 0.669149 520.457 49.8381)" fill="white" fill-opacity="0.6"/>
<rect width="0.939268" height="0.941111" transform="matrix(0.687037 0.726622 -0.743128 0.669149 501.425 105.557)" fill="white" fill-opacity="0.6"/>
<rect width="0.939268" height="0.941111" transform="matrix(0.687037 0.726622 -0.743128 0.669149 596.585 3.40613)" fill="white" fill-opacity="0.6"/>
<rect width="0.939268" height="0.941111" transform="matrix(0.687037 0.726622 -0.743128 0.669149 539.489 77.6974)" fill="white" fill-opacity="0.6"/>
<rect width="0.939268" height="0.941111" transform="matrix(0.687037 0.726622 -0.743128 0.669149 568.037 40.5518)" fill="white" fill-opacity="0.6"/>
<rect width="0.939268" height="0.941111" transform="matrix(0.687037 0.726622 -0.743128 0.669149 444.329 96.2702)" fill="white" fill-opacity="0.6"/>
<rect width="0.939268" height="0.941111" transform="matrix(0.687037 0.726622 -0.743128 0.669149 501.425 3.40613)" fill="white" fill-opacity="0.6"/>
<rect width="0.939268" height="0.941111" transform="matrix(0.687037 0.726622 -0.743128 0.669149 396.749 49.8381)" fill="white" fill-opacity="0.6"/>
<rect width="0.939268" height="0.941111" transform="matrix(0.687037 0.726622 -0.743128 0.669149 358.685 40.5518)" fill="white" fill-opacity="0.6"/>
<rect width="0.939268" height="0.941111" transform="matrix(0.687037 0.726622 -0.743128 0.669149 358.685 96.2702)" fill="white" fill-opacity="0.6"/>
<rect width="0.939268" height="0.941111" transform="matrix(0.687037 0.726622 -0.743128 0.669149 596.585 21.979)" fill="white" fill-opacity="0.6"/>
<rect width="0.939268" height="0.941111" transform="matrix(0.687037 0.726622 -0.743128 0.669149 472.877 59.1245)" fill="white" fill-opacity="0.6"/>
<rect width="0.939268" height="0.941111" transform="matrix(0.687037 0.726622 -0.743128 0.669149 510.941 124.129)" fill="white" fill-opacity="0.6"/>
<rect width="0.939268" height="0.941111" transform="matrix(0.687037 0.726622 -0.743128 0.669149 463.361 21.979)" fill="white" fill-opacity="0.6"/>
<rect width="0.939268" height="0.941111" transform="matrix(0.687037 0.726622 -0.743128 0.669149 425.297 68.4109)" fill="white" fill-opacity="0.6"/>
<rect width="0.939268" height="0.941111" transform="matrix(0.687037 0.726622 -0.743128 0.669149 568.037 124.129)" fill="white" fill-opacity="0.6"/>
<rect width="0.939268" height="0.941111" transform="matrix(0.687037 0.726622 -0.743128 0.669149 520.457 96.2702)" fill="white" fill-opacity="0.6"/>
<rect width="2.8178" height="2.82333" transform="matrix(0.687037 0.726622 -0.743128 0.669149 444.329 59.1245)" fill="white" fill-opacity="0.6"/>
<rect width="0.891311" height="0.89306" transform="matrix(0.687037 0.726622 -0.743128 0.669149 406.265 68.4109)" fill="white" fill-opacity="0.6"/>
<rect width="0.891311" height="0.89306" transform="matrix(0.687037 0.726622 -0.743128 0.669149 510.941 77.6974)" fill="white" fill-opacity="0.6"/>
<rect width="2.8178" height="2.82333" transform="matrix(0.687037 0.726622 -0.743128 0.669149 539.489 40.5518)" fill="white" fill-opacity="0.6"/>
<rect width="2.8178" height="2.82333" transform="matrix(0.687037 0.726622 -0.743128 0.669149 568.037 12.6925)" fill="white" fill-opacity="0.6"/>
<rect width="0.891311" height="0.89306" transform="matrix(0.687037 0.726622 -0.743128 0.669149 596.585 40.5518)" fill="white" fill-opacity="0.6"/>
<rect width="2.8178" height="2.82333" transform="matrix(0.687037 0.726622 -0.743128 0.669149 568.037 105.557)" fill="white" fill-opacity="0.6"/>
<rect width="2.8178" height="2.82333" transform="matrix(0.687037 0.726622 -0.743128 0.669149 482.393 77.6974)" fill="white" fill-opacity="0.6"/>
<rect width="0.891311" height="0.89306" transform="matrix(0.687037 0.726622 -0.743128 0.669149 615.617 114.843)" fill="white" fill-opacity="0.6"/>
<rect width="0.891311" height="0.89306" transform="matrix(0.687037 0.726622 -0.743128 0.669149 520.457 12.6925)" fill="white" fill-opacity="0.6"/>
<rect width="2.8178" height="2.82333" transform="matrix(0.687037 0.726622 -0.743128 0.669149 377.717 40.5518)" fill="white" fill-opacity="0.6"/>
<rect width="0.891311" height="0.89306" transform="matrix(0.687037 0.726622 -0.743128 0.669149 368.201 12.6925)" fill="white" fill-opacity="0.6"/>
<rect width="2.8178" height="2.82333" transform="matrix(0.687037 0.726622 -0.743128 0.669149 672.713 114.843)" fill="white" fill-opacity="0.6"/>
<rect width="0.891311" height="0.89306" transform="matrix(0.687037 0.726622 -0.743128 0.669149 626.104 68.4109)" fill="white" fill-opacity="0.6"/>
<rect width="2.8178" height="2.82333" transform="matrix(0.687037 0.726622 -0.743128 0.669149 625.133 21.979)" fill="white" fill-opacity="0.6"/>
<rect width="2.8178" height="2.82333" transform="matrix(0.687037 0.726622 -0.743128 0.669149 672.713 49.8381)" fill="white" fill-opacity="0.6"/>
<rect width="0.891311" height="0.89306" transform="matrix(0.687037 0.726622 -0.743128 0.669149 672.435 77.4291)" fill="white" fill-opacity="0.6"/>
<rect width="0.892186" height="0.892186" transform="matrix(0.715688 0.698421 -0.715688 0.698421 567.902 68.4083)" fill="white" fill-opacity="0.6"/>
<rect width="0.892186" height="0.892186" transform="matrix(0.715688 0.698421 -0.715688 0.698421 463.226 105.554)" fill="white" fill-opacity="0.6"/>
<rect width="0.892186" height="0.892186" transform="matrix(0.715688 0.698421 -0.715688 0.698421 358.55 68.4083)" fill="white" fill-opacity="0.6"/>
<rect width="0.892186" height="0.892186" transform="matrix(0.715688 0.698421 -0.715688 0.698421 491.774 40.5491)" fill="white" fill-opacity="0.6"/>
<rect width="0.892186" height="0.892186" transform="matrix(0.715688 0.698421 -0.715688 0.698421 653.546 12.6899)" fill="white" fill-opacity="0.6"/>
<rect width="0.892186" height="0.892186" transform="matrix(0.715688 0.698421 -0.715688 0.698421 653.546 105.554)" fill="white" fill-opacity="0.6"/>
<defs>
<linearGradient id="paint0_linear_19_158" x1="170" y1="-0.118774" x2="170" y2="229" gradientUnits="userSpaceOnUse">
<stop stop-color="#010326"/>
<stop offset="1" stop-color="#37729D"/>
</linearGradient>
<linearGradient id="paint1_linear_19_158" x1="510" y1="-1" x2="510" y2="228.119" gradientUnits="userSpaceOnUse">
<stop stop-color="#010326"/>
<stop offset="1" stop-color="#37729D"/>
</linearGradient>
</defs>
</svg>
