<svg width="680" height="229" viewBox="0 0 680 229" fill="none" xmlns="http://www.w3.org/2000/svg">
<rect y="-0.118774" width="340" height="229.119" fill="url(#paint0_linear_18_20)"/>
<path opacity="0.5" d="M31.9996 53.6497C29.5198 53.6467 27.1355 52.7743 25.3374 51.2119C23.5393 49.6495 22.4642 47.516 22.3333 45.2505C22.2024 42.9849 23.0256 40.7597 24.6336 39.0326C26.2416 37.3054 28.5121 36.2079 30.9778 35.9657C30.2517 33.361 30.6865 30.599 32.1864 28.2875C33.6862 25.976 36.1284 24.3043 38.9755 23.6401C41.8227 22.9759 44.8416 23.3736 47.3683 24.7458C49.8949 26.118 51.7222 28.3522 52.4482 30.9569C54.1415 30.7412 55.8652 30.8466 57.512 31.2664C59.1589 31.6863 60.6937 32.4116 62.0211 33.3974C63.3484 34.3832 64.4398 35.6083 65.2274 36.9965C66.015 38.3846 66.482 39.9062 66.5993 41.4666C66.7166 43.027 66.4817 44.5928 65.9092 46.0665C65.3368 47.5403 64.4389 48.8905 63.2716 50.0332C62.1043 51.176 60.6925 52.0867 59.1239 52.7089C57.5554 53.3311 55.8637 53.6513 54.1541 53.6497H31.9996Z" fill="white"/>
<path opacity="0.5" fill-rule="evenodd" clip-rule="evenodd" d="M185.736 53.2003C187.579 53.9385 189.584 54.3306 191.631 54.3331H225.336C227.648 54.3353 229.938 53.9506 232.094 53.2003H243.037C248.59 53.2003 253.092 48.6986 253.092 43.1455C253.092 37.8616 249.016 33.5296 243.837 33.1221C243.479 31.6923 242.924 30.3062 242.182 28.9979C240.984 26.886 239.323 25.0223 237.304 23.5226C235.285 22.0229 232.95 20.9194 230.444 20.2806C227.939 19.6419 225.316 19.4816 222.74 19.8098C221.636 15.8471 218.856 12.4481 215.012 10.3606C211.168 8.27303 206.575 7.66795 202.244 8.67843C197.912 9.68891 194.197 12.2322 191.915 15.7487C189.634 19.2653 188.972 23.4671 190.077 27.4298C186.326 27.7982 182.871 29.468 180.425 32.0955C180.126 32.4164 179.846 32.7485 179.583 33.0907H158.334C152.781 33.0907 148.28 37.5924 148.28 43.1455C148.28 48.6986 152.781 53.2003 158.334 53.2003H185.736Z" fill="white"/>
<path d="M105.579 74.3079C107.368 73.6029 111.52 73.3209 113.811 77.8328" stroke="#666666"/>
<path d="M121.684 74.3079C119.895 73.6029 115.743 73.3209 113.453 77.8328" stroke="#666666"/>
<path d="M163.737 29.5492C165.228 28.9617 168.688 28.7267 170.596 32.4866" stroke="#666666"/>
<path d="M177.158 29.5492C175.667 28.9617 172.207 28.7267 170.298 32.4866" stroke="#666666"/>
<rect x="340" y="-1" width="340" height="229.119" fill="url(#paint1_linear_18_20)"/>
<path opacity="0.5" d="M533.242 59.0483C530.762 59.0454 528.378 58.1729 526.58 56.6105C524.782 55.0482 523.707 52.9147 523.576 50.6491C523.445 48.3836 524.268 46.1583 525.876 44.4312C527.484 42.7041 529.755 41.6065 532.22 41.3643C531.494 38.7596 531.929 35.9977 533.429 33.6862C534.929 31.3747 537.371 29.703 540.218 29.0387C543.065 28.3745 546.084 28.7723 548.611 30.1444C551.137 31.5166 552.965 33.7508 553.691 36.3556C555.384 36.1399 557.108 36.2452 558.755 36.6651C560.401 37.0849 561.936 37.8103 563.264 38.7961C564.591 39.7818 565.682 41.0069 566.47 42.3951C567.258 43.7833 567.725 45.3049 567.842 46.8653C567.959 48.4256 567.724 49.9914 567.152 51.4652C566.579 52.9389 565.681 54.2892 564.514 55.4319C563.347 56.5746 561.935 57.4854 560.366 58.1075C558.798 58.7297 557.106 59.0499 555.397 59.0483H533.242Z" fill="white"/>
<path opacity="0.5" fill-rule="evenodd" clip-rule="evenodd" d="M324.531 76.5602C325.029 74.3592 326.125 72.2882 327.745 70.5492C330.191 67.9217 333.645 66.252 337.396 65.8835C336.292 61.9208 336.953 57.719 339.235 54.2025C341.517 50.6859 345.232 48.1426 349.563 47.1322C353.895 46.1217 358.488 46.7268 362.331 48.8143C366.175 50.9018 368.955 54.3008 370.06 58.2635C372.636 57.9354 375.258 58.0956 377.764 58.7344C380.269 59.3731 382.604 60.4766 384.623 61.9763C386.643 63.476 388.303 65.3398 389.501 67.4517C390.699 69.5636 391.41 71.8784 391.588 74.2523C391.646 75.0224 391.648 75.7934 391.594 76.5602H397.688C403.241 76.5602 407.743 81.0619 407.743 86.615C407.743 92.1681 403.241 96.6698 397.688 96.6698H312.986C307.432 96.6698 302.931 92.1681 302.931 86.615C302.931 81.0619 307.432 76.5602 312.986 76.5602H324.531Z" fill="white"/>
<path d="M473.316 57.5646C475.105 56.8596 479.257 56.5776 481.547 61.0895" stroke="#666666"/>
<path d="M489.421 57.5646C487.632 56.8596 483.48 56.5776 481.189 61.0895" stroke="#666666"/>
<path d="M578 88.3403C579.491 87.7528 582.951 87.5178 584.86 91.2777" stroke="#666666"/>
<path d="M591.421 88.3403C589.93 87.7528 586.47 87.5178 584.561 91.2777" stroke="#666666"/>
<defs>
<linearGradient id="paint0_linear_18_20" x1="170" y1="-0.118774" x2="170" y2="229" gradientUnits="userSpaceOnUse">
<stop stop-color="#56BDFF"/>
<stop offset="1" stop-color="white"/>
</linearGradient>
<linearGradient id="paint1_linear_18_20" x1="510" y1="-1" x2="510" y2="228.119" gradientUnits="userSpaceOnUse">
<stop stop-color="#56BDFF"/>
<stop offset="1" stop-color="white"/>
</linearGradient>
</defs>
</svg>
