<svg width="68" height="68" viewBox="0 0 68 68" fill="none" xmlns="http://www.w3.org/2000/svg">
<rect width="68" height="68" rx="5" fill="url(#paint0_linear_45_18)"/>
<path d="M31.75 26.75L28 23L31.75 26.75ZM28 23L31.75 19.25L28 23ZM28 23H38H28ZM21.75 23C21.75 21.5226 22.041 20.0597 22.6064 18.6948C23.1717 17.3299 24.0004 16.0897 25.045 15.045C26.0897 14.0004 27.3299 13.1717 28.6948 12.6064C30.0597 12.041 31.5226 11.75 33 11.75C34.4774 11.75 35.9403 12.041 37.3052 12.6064C38.6701 13.1717 39.9103 14.0004 40.955 15.045C41.9996 16.0897 42.8283 17.3299 43.3936 18.6948C43.959 20.0597 44.25 21.5226 44.25 23C44.25 25.9837 43.0647 28.8452 40.955 30.955C38.8452 33.0647 35.9837 34.25 33 34.25C30.0163 34.25 27.1548 33.0647 25.045 30.955C22.9353 28.8452 21.75 25.9837 21.75 23V23Z" stroke="#666666" stroke-linecap="round" stroke-linejoin="round"/>
<path d="M8.884 51.668C9.356 51.756 9.756 51.996 10.084 52.388C10.412 52.78 10.576 53.236 10.576 53.756C10.576 54.18 10.468 54.564 10.252 54.908C10.044 55.244 9.736 55.512 9.328 55.712C8.92 55.904 8.432 56 7.864 56H4.96V47.612H7.78C8.628 47.612 9.272 47.808 9.712 48.2C10.16 48.592 10.384 49.1 10.384 49.724C10.384 50.244 10.244 50.668 9.964 50.996C9.684 51.316 9.324 51.54 8.884 51.668ZM5.8 51.32H7.756C8.324 51.32 8.76 51.188 9.064 50.924C9.376 50.652 9.532 50.28 9.532 49.808C9.532 49.344 9.376 48.98 9.064 48.716C8.76 48.452 8.312 48.32 7.72 48.32H5.8V51.32ZM7.804 55.292C8.412 55.292 8.884 55.148 9.22 54.86C9.564 54.572 9.736 54.176 9.736 53.672C9.736 53.168 9.556 52.768 9.196 52.472C8.844 52.168 8.368 52.016 7.768 52.016H5.8V55.292H7.804ZM11.7362 52.712C11.7362 52.04 11.8682 51.452 12.1322 50.948C12.4042 50.436 12.7762 50.044 13.2482 49.772C13.7282 49.492 14.2682 49.352 14.8682 49.352C15.4922 49.352 16.0282 49.496 16.4762 49.784C16.9322 50.072 17.2602 50.44 17.4602 50.888V49.448H18.3002V56H17.4602V54.548C17.2522 54.996 16.9202 55.368 16.4642 55.664C16.0162 55.952 15.4802 56.096 14.8562 56.096C14.2642 56.096 13.7282 55.956 13.2482 55.676C12.7762 55.396 12.4042 55 12.1322 54.488C11.8682 53.976 11.7362 53.384 11.7362 52.712ZM17.4602 52.724C17.4602 52.196 17.3522 51.732 17.1362 51.332C16.9202 50.932 16.6242 50.624 16.2482 50.408C15.8802 50.192 15.4722 50.084 15.0242 50.084C14.5602 50.084 14.1442 50.188 13.7762 50.396C13.4082 50.604 13.1162 50.908 12.9002 51.308C12.6922 51.7 12.5882 52.168 12.5882 52.712C12.5882 53.248 12.6922 53.72 12.9002 54.128C13.1162 54.528 13.4082 54.836 13.7762 55.052C14.1442 55.26 14.5602 55.364 15.0242 55.364C15.4722 55.364 15.8802 55.256 16.2482 55.04C16.6242 54.824 16.9202 54.516 17.1362 54.116C17.3522 53.716 17.4602 53.252 17.4602 52.724ZM19.8338 52.724C19.8338 52.044 19.9698 51.452 20.2418 50.948C20.5138 50.436 20.8898 50.044 21.3698 49.772C21.8498 49.492 22.3978 49.352 23.0138 49.352C23.8218 49.352 24.4858 49.552 25.0058 49.952C25.5338 50.352 25.8738 50.896 26.0258 51.584H25.1258C25.0138 51.112 24.7698 50.744 24.3938 50.48C24.0258 50.208 23.5658 50.072 23.0138 50.072C22.5738 50.072 22.1778 50.172 21.8258 50.372C21.4738 50.572 21.1938 50.872 20.9858 51.272C20.7858 51.664 20.6858 52.148 20.6858 52.724C20.6858 53.3 20.7858 53.788 20.9858 54.188C21.1938 54.588 21.4738 54.888 21.8258 55.088C22.1778 55.288 22.5738 55.388 23.0138 55.388C23.5658 55.388 24.0258 55.256 24.3938 54.992C24.7698 54.72 25.0138 54.344 25.1258 53.864H26.0258C25.8738 54.536 25.5338 55.076 25.0058 55.484C24.4778 55.892 23.8138 56.096 23.0138 56.096C22.3978 56.096 21.8498 55.96 21.3698 55.688C20.8898 55.408 20.5138 55.016 20.2418 54.512C19.9698 54 19.8338 53.404 19.8338 52.724ZM31.1172 56L28.4172 53.06V56H27.5772V47.12H28.4172V52.376L31.0572 49.448H32.2332L29.1252 52.712L32.2572 56H31.1172ZM41.9828 49.448L39.9308 56H39.0908L37.2788 50.504L35.4668 56H34.6148L32.5628 49.448H33.4148L35.0468 55.148L36.8828 49.448H37.7228L39.5348 55.16L41.1548 49.448H41.9828ZM42.744 52.712C42.744 52.04 42.876 51.452 43.14 50.948C43.412 50.436 43.784 50.044 44.256 49.772C44.736 49.492 45.276 49.352 45.876 49.352C46.5 49.352 47.036 49.496 47.484 49.784C47.94 50.072 48.268 50.44 48.468 50.888V49.448H49.308V56H48.468V54.548C48.26 54.996 47.928 55.368 47.472 55.664C47.024 55.952 46.488 56.096 45.864 56.096C45.272 56.096 44.736 55.956 44.256 55.676C43.784 55.396 43.412 55 43.14 54.488C42.876 53.976 42.744 53.384 42.744 52.712ZM48.468 52.724C48.468 52.196 48.36 51.732 48.144 51.332C47.928 50.932 47.632 50.624 47.256 50.408C46.888 50.192 46.48 50.084 46.032 50.084C45.568 50.084 45.152 50.188 44.784 50.396C44.416 50.604 44.124 50.908 43.908 51.308C43.7 51.7 43.596 52.168 43.596 52.712C43.596 53.248 43.7 53.72 43.908 54.128C44.124 54.528 44.416 54.836 44.784 55.052C45.152 55.26 45.568 55.364 46.032 55.364C46.48 55.364 46.888 55.256 47.256 55.04C47.632 54.824 47.928 54.516 48.144 54.116C48.36 53.716 48.468 53.252 48.468 52.724ZM52.0656 50.612C52.2496 50.204 52.5296 49.888 52.9056 49.664C53.2896 49.44 53.7576 49.328 54.3096 49.328V50.204H54.0816C53.4736 50.204 52.9856 50.368 52.6176 50.696C52.2496 51.024 52.0656 51.572 52.0656 52.34V56H51.2256V49.448H52.0656V50.612ZM55.1893 52.712C55.1893 52.04 55.3253 51.452 55.5973 50.948C55.8693 50.436 56.2413 50.044 56.7133 49.772C57.1933 49.492 57.7333 49.352 58.3333 49.352C58.9093 49.352 59.4293 49.492 59.8933 49.772C60.3573 50.052 60.6973 50.416 60.9133 50.864V47.12H61.7533V56H60.9133V54.536C60.7133 54.992 60.3853 55.368 59.9293 55.664C59.4733 55.952 58.9373 56.096 58.3213 56.096C57.7213 56.096 57.1813 55.956 56.7013 55.676C56.2293 55.396 55.8573 55 55.5853 54.488C55.3213 53.976 55.1893 53.384 55.1893 52.712ZM60.9133 52.724C60.9133 52.196 60.8053 51.732 60.5893 51.332C60.3733 50.932 60.0773 50.624 59.7013 50.408C59.3333 50.192 58.9253 50.084 58.4773 50.084C58.0133 50.084 57.5973 50.188 57.2293 50.396C56.8613 50.604 56.5693 50.908 56.3533 51.308C56.1453 51.7 56.0413 52.168 56.0413 52.712C56.0413 53.248 56.1453 53.72 56.3533 54.128C56.5693 54.528 56.8613 54.836 57.2293 55.052C57.5973 55.26 58.0133 55.364 58.4773 55.364C58.9253 55.364 59.3333 55.256 59.7013 55.04C60.0773 54.824 60.3733 54.516 60.5893 54.116C60.8053 53.716 60.9133 53.252 60.9133 52.724Z" fill="white"/>
<defs>
<linearGradient id="paint0_linear_45_18" x1="34" y1="0" x2="34" y2="68" gradientUnits="userSpaceOnUse">
<stop stop-color="#999999" stop-opacity="0"/>
<stop offset="1" stop-color="#999999" stop-opacity="0.5"/>
</linearGradient>
</defs>
</svg>
