<svg width="36" height="36" viewBox="0 0 36 36" fill="none" xmlns="http://www.w3.org/2000/svg">
<circle cx="18" cy="18" r="18" fill="#1D1D1D"/>
<rect x="0.5" y="0.5" width="35" height="35" rx="17.5" stroke="#FBFE02"/>
<path d="M26.5243 19.6542L26.5245 19.6544C26.6231 19.7529 26.693 19.8764 26.7269 20.0115C26.7608 20.1466 26.7573 20.2882 26.717 20.4215C26.1621 22.2316 25.0503 23.8205 23.54 24.962L23.5399 24.9621C21.996 26.1302 20.1117 26.7596 18.1758 26.754H18.175C16.5165 26.7541 14.8907 26.292 13.4801 25.4196C12.0695 24.5472 10.93 23.299 10.1893 21.815C9.44865 20.331 9.13618 18.67 9.28696 17.0183C9.43774 15.3666 10.0458 13.7897 11.0429 12.4643C12.1834 10.9532 13.7715 9.84032 15.5811 9.28411L15.5812 9.28407C15.7149 9.24291 15.8573 9.23897 15.993 9.27267C16.1288 9.30637 16.2528 9.37644 16.3517 9.47534C16.4506 9.57425 16.5207 9.69824 16.5544 9.83399C16.5881 9.96974 16.5841 10.1121 16.543 10.2458L16.5426 10.247C16.1557 11.5269 16.1232 12.8878 16.4486 14.1847C16.7739 15.4816 17.445 16.6659 18.3903 17.6116C19.3356 18.5572 20.5197 19.2287 21.8165 19.5546C23.1132 19.8805 24.4741 19.8485 25.7542 19.4621L25.7549 19.4619C25.8886 19.421 26.0308 19.4174 26.1663 19.4513C26.3019 19.4851 26.4256 19.5553 26.5243 19.6542ZM26.7013 19.4776C26.5705 19.3466 26.4065 19.2536 26.227 19.2087C26.0474 19.1638 25.8589 19.1687 25.6819 19.2228C24.4452 19.5961 23.1303 19.627 21.8774 19.3122C20.6245 18.9973 19.4804 18.3485 18.5671 17.4348C17.6538 16.5212 17.0054 15.3769 16.691 14.1238C16.3767 12.8708 16.4081 11.556 16.7819 10.3194C16.8364 10.1422 16.8417 9.95361 16.797 9.77375C16.7523 9.59389 16.6595 9.42961 16.5285 9.29857C16.3974 9.16753 16.2331 9.07469 16.0533 9.03003C15.8734 8.98538 15.6848 8.9906 15.5077 9.04514L26.7013 19.4776ZM22.6144 23.7328L22.6148 23.7325C23.3599 23.1695 23.9926 22.4715 24.4799 21.6748L24.7331 21.261L24.2491 21.295C24.0376 21.3099 23.8252 21.3173 23.612 21.3173C21.2458 21.3147 18.9773 20.3736 17.3042 18.7005C15.6311 17.0273 14.69 14.7588 14.6873 12.3927C14.6873 12.1794 14.6948 11.967 14.7096 11.7555L14.7437 11.2714L14.3298 11.5248C13.5332 12.0122 12.8353 12.6449 12.2722 13.3898L12.2719 13.3902C11.2013 14.8124 10.6803 16.5734 10.8049 18.3492C10.9295 20.1249 11.6913 21.7959 12.95 23.0547C14.2087 24.3134 15.8797 25.0751 17.6555 25.1997C19.4312 25.3243 21.1923 24.8034 22.6144 23.7328Z" fill="#FBFE02" stroke="black" stroke-width="0.5"/>
<circle cx="23.5" cy="12.5" r="7.5" fill="#1D1D1D"/>
</svg>
