<svg width="68" height="68" viewBox="0 0 68 68" fill="none" xmlns="http://www.w3.org/2000/svg">
<rect width="68" height="68" rx="5" fill="url(#paint0_linear_36_7)"/>
<path d="M40.955 30.955L25.045 15.045M40.955 30.955C43.0648 28.8452 44.2501 25.9837 44.2501 23C44.2501 20.0163 43.0648 17.1548 40.955 15.045C38.8452 12.9352 35.9837 11.7499 33 11.7499C30.0163 11.7499 27.1548 12.9352 25.045 15.045L40.955 30.955ZM40.955 30.955C38.8452 33.0648 35.9837 34.2501 33 34.2501C30.0163 34.2501 27.1548 33.0648 25.045 30.955C22.9352 28.8452 21.7499 25.9837 21.7499 23C21.7499 20.0163 22.9352 17.1548 25.045 15.045L40.955 30.955Z" stroke="#FBFE02" stroke-linecap="round" stroke-linejoin="round"/>
<path d="M11.324 50.024C11.324 50.744 11.088 51.324 10.616 51.764C10.144 52.204 9.436 52.424 8.492 52.424H6.8V56H5.96V47.612H8.492C9.428 47.612 10.132 47.832 10.604 48.272C11.084 48.712 11.324 49.296 11.324 50.024ZM8.492 51.704C9.804 51.704 10.46 51.144 10.46 50.024C10.46 49.464 10.304 49.04 9.992 48.752C9.68 48.464 9.18 48.32 8.492 48.32H6.8V51.704H8.492ZM15.6014 56.096C14.9854 56.096 14.4294 55.96 13.9334 55.688C13.4454 55.408 13.0574 55.016 12.7694 54.512C12.4894 54 12.3494 53.404 12.3494 52.724C12.3494 52.044 12.4934 51.452 12.7814 50.948C13.0694 50.436 13.4614 50.044 13.9574 49.772C14.4534 49.492 15.0094 49.352 15.6254 49.352C16.2414 49.352 16.7974 49.492 17.2934 49.772C17.7974 50.044 18.1894 50.436 18.4694 50.948C18.7574 51.452 18.9014 52.044 18.9014 52.724C18.9014 53.396 18.7574 53.988 18.4694 54.5C18.1814 55.012 17.7854 55.408 17.2814 55.688C16.7774 55.96 16.2174 56.096 15.6014 56.096ZM15.6014 55.364C16.0334 55.364 16.4334 55.268 16.8014 55.076C17.1694 54.876 17.4654 54.58 17.6894 54.188C17.9214 53.788 18.0374 53.3 18.0374 52.724C18.0374 52.148 17.9254 51.664 17.7014 51.272C17.4774 50.872 17.1814 50.576 16.8134 50.384C16.4454 50.184 16.0454 50.084 15.6134 50.084C15.1814 50.084 14.7814 50.184 14.4134 50.384C14.0454 50.576 13.7494 50.872 13.5254 51.272C13.3094 51.664 13.2014 52.148 13.2014 52.724C13.2014 53.3 13.3094 53.788 13.5254 54.188C13.7494 54.58 14.0414 54.876 14.4014 55.076C14.7694 55.268 15.1694 55.364 15.6014 55.364ZM29.0727 49.448L27.0207 56H26.1807L24.3687 50.504L22.5567 56H21.7047L19.6527 49.448H20.5047L22.1367 55.148L23.9727 49.448H24.8127L26.6247 55.16L28.2447 49.448H29.0727ZM36.1458 52.388C36.1458 52.676 36.1378 52.896 36.1218 53.048H30.6858C30.7098 53.544 30.8298 53.968 31.0458 54.32C31.2618 54.672 31.5458 54.94 31.8978 55.124C32.2498 55.3 32.6338 55.388 33.0498 55.388C33.5938 55.388 34.0498 55.256 34.4178 54.992C34.7938 54.728 35.0418 54.372 35.1618 53.924H36.0498C35.8898 54.564 35.5458 55.088 35.0178 55.496C34.4978 55.896 33.8418 56.096 33.0498 56.096C32.4338 56.096 31.8818 55.96 31.3938 55.688C30.9058 55.408 30.5218 55.016 30.2418 54.512C29.9698 54 29.8338 53.404 29.8338 52.724C29.8338 52.044 29.9698 51.448 30.2418 50.936C30.5138 50.424 30.8938 50.032 31.3818 49.76C31.8698 49.488 32.4258 49.352 33.0498 49.352C33.6738 49.352 34.2178 49.488 34.6818 49.76C35.1538 50.032 35.5138 50.4 35.7618 50.864C36.0178 51.32 36.1458 51.828 36.1458 52.388ZM35.2938 52.364C35.3018 51.876 35.2018 51.46 34.9938 51.116C34.7938 50.772 34.5178 50.512 34.1658 50.336C33.8138 50.16 33.4298 50.072 33.0138 50.072C32.3898 50.072 31.8578 50.272 31.4178 50.672C30.9778 51.072 30.7338 51.636 30.6858 52.364H35.2938ZM38.5227 50.612C38.7067 50.204 38.9867 49.888 39.3627 49.664C39.7467 49.44 40.2147 49.328 40.7667 49.328V50.204H40.5387C39.9307 50.204 39.4427 50.368 39.0747 50.696C38.7067 51.024 38.5227 51.572 38.5227 52.34V56H37.6827V49.448H38.5227V50.612ZM49.0913 56.084C48.3153 56.084 47.6113 55.904 46.9793 55.544C46.3473 55.176 45.8473 54.668 45.4793 54.02C45.1193 53.364 44.9393 52.624 44.9393 51.8C44.9393 50.976 45.1193 50.24 45.4793 49.592C45.8473 48.936 46.3473 48.428 46.9793 48.068C47.6113 47.7 48.3153 47.516 49.0913 47.516C49.8753 47.516 50.5833 47.7 51.2153 48.068C51.8473 48.428 52.3433 48.936 52.7033 49.592C53.0633 50.24 53.2433 50.976 53.2433 51.8C53.2433 52.624 53.0633 53.364 52.7033 54.02C52.3433 54.668 51.8473 55.176 51.2153 55.544C50.5833 55.904 49.8753 56.084 49.0913 56.084ZM49.0913 55.352C49.7153 55.352 50.2753 55.208 50.7713 54.92C51.2673 54.632 51.6593 54.22 51.9473 53.684C52.2353 53.14 52.3793 52.512 52.3793 51.8C52.3793 51.088 52.2353 50.464 51.9473 49.928C51.6593 49.392 51.2673 48.98 50.7713 48.692C50.2753 48.404 49.7153 48.26 49.0913 48.26C48.4673 48.26 47.9073 48.404 47.4113 48.692C46.9153 48.98 46.5233 49.392 46.2353 49.928C45.9473 50.464 45.8033 51.088 45.8033 51.8C45.8033 52.512 45.9473 53.14 46.2353 53.684C46.5233 54.22 46.9153 54.632 47.4113 54.92C47.9073 55.208 48.4673 55.352 49.0913 55.352ZM57.3603 50.156H55.8363V56H54.9963V50.156H54.0843V49.448H54.9963V48.992C54.9963 48.28 55.1763 47.756 55.5363 47.42C55.9043 47.084 56.4963 46.916 57.3123 46.916V47.636C56.7683 47.636 56.3843 47.74 56.1603 47.948C55.9443 48.156 55.8363 48.504 55.8363 48.992V49.448H57.3603V50.156ZM61.2627 50.156H59.7387V56H58.8987V50.156H57.9867V49.448H58.8987V48.992C58.8987 48.28 59.0787 47.756 59.4387 47.42C59.8067 47.084 60.3987 46.916 61.2147 46.916V47.636C60.6707 47.636 60.2867 47.74 60.0627 47.948C59.8467 48.156 59.7387 48.504 59.7387 48.992V49.448H61.2627V50.156Z" fill="#AAAAAA"/>
<defs>
<linearGradient id="paint0_linear_36_7" x1="34" y1="0" x2="34" y2="68" gradientUnits="userSpaceOnUse">
<stop stop-color="#FAFF01" stop-opacity="0"/>
<stop offset="1" stop-color="#FBFE02" stop-opacity="0.1"/>
</linearGradient>
</defs>
</svg>
