<svg width="40" height="40" viewBox="0 0 40 40" fill="none" xmlns="http://www.w3.org/2000/svg">
<circle cx="20" cy="20" r="20" transform="matrix(-1 0 0 1 40 0)" fill="white"/>
<rect x="2.31818" y="2.31818" width="35.3636" height="35.3636" rx="17.6818" stroke="#666666"/>
<mask id="path-3-inside-1_38_143" fill="white">
<path d="M18.9091 11.6364V10.1818C18.9091 9.89249 19.0241 9.61501 19.2286 9.41042C19.4332 9.20584 19.7107 9.0909 20 9.0909C20.2894 9.0909 20.5668 9.20584 20.7714 9.41042C20.976 9.61501 21.0909 9.89249 21.0909 10.1818V11.6364C21.0909 11.9257 20.976 12.2032 20.7714 12.4077C20.5668 12.6123 20.2894 12.7273 20 12.7273C19.7107 12.7273 19.4332 12.6123 19.2286 12.4077C19.0241 12.2032 18.9091 11.9257 18.9091 11.6364ZM26.1819 20C26.1819 21.2226 25.8193 22.4178 25.14 23.4344C24.4608 24.451 23.4953 25.2434 22.3657 25.7113C21.2361 26.1791 19.9932 26.3016 18.794 26.063C17.5949 25.8245 16.4934 25.2357 15.6288 24.3712C14.7643 23.5067 14.1755 22.4052 13.937 21.206C13.6985 20.0069 13.8209 18.7639 14.2888 17.6343C14.7567 16.5047 15.549 15.5393 16.5656 14.86C17.5822 14.1807 18.7774 13.8182 20 13.8182C21.639 13.8199 23.2104 14.4717 24.3694 15.6307C25.5283 16.7896 26.1802 18.361 26.1819 20ZM24 20C24 19.2089 23.7654 18.4355 23.3259 17.7777C22.8864 17.1199 22.2617 16.6072 21.5308 16.3045C20.7999 16.0017 19.9956 15.9225 19.2197 16.0769C18.4437 16.2312 17.731 16.6122 17.1716 17.1716C16.6122 17.731 16.2312 18.4437 16.0769 19.2196C15.9226 19.9956 16.0018 20.7998 16.3045 21.5307C16.6073 22.2616 17.12 22.8863 17.7778 23.3259C18.4355 23.7654 19.2089 24 20 24C21.0605 23.9988 22.0772 23.577 22.8271 22.8271C23.577 22.0772 23.9988 21.0605 24 20ZM13.0464 14.59C13.1479 14.6915 13.2683 14.772 13.4009 14.8269C13.5335 14.8818 13.6756 14.9101 13.8191 14.9101C13.9626 14.9101 14.1047 14.8818 14.2373 14.8269C14.3699 14.772 14.4904 14.6915 14.5919 14.59C14.6933 14.4885 14.7738 14.368 14.8287 14.2355C14.8837 14.1029 14.9119 13.9608 14.9119 13.8173C14.9119 13.6738 14.8837 13.5317 14.8287 13.3991C14.7738 13.2665 14.6933 13.146 14.5919 13.0445L13.5009 11.9536C13.296 11.7487 13.018 11.6336 12.7282 11.6336C12.4384 11.6336 12.1604 11.7487 11.9555 11.9536C11.7505 12.1586 11.6354 12.4365 11.6354 12.7264C11.6354 13.0162 11.7505 13.2941 11.9555 13.4991L13.0464 14.59ZM13.0464 25.4082L11.9555 26.4991C11.854 26.6006 11.7735 26.721 11.7186 26.8536C11.6637 26.9862 11.6354 27.1283 11.6354 27.2718C11.6354 27.4153 11.6637 27.5574 11.7186 27.69C11.7735 27.8226 11.854 27.9431 11.9555 28.0445C12.1604 28.2495 12.4384 28.3646 12.7282 28.3646C12.8717 28.3646 13.0138 28.3363 13.1464 28.2814C13.279 28.2265 13.3995 28.146 13.5009 28.0445L14.5919 26.9536C14.7968 26.7487 14.9119 26.4707 14.9119 26.1809C14.9119 25.8911 14.7968 25.6131 14.5919 25.4082C14.3869 25.2032 14.109 25.0881 13.8191 25.0881C13.5293 25.0881 13.2513 25.2032 13.0464 25.4082ZM26.1819 14.9091C26.3252 14.9092 26.4671 14.8811 26.5995 14.8263C26.7319 14.7716 26.8523 14.6913 26.9537 14.59L28.0446 13.4991C28.1461 13.3976 28.2265 13.2771 28.2815 13.1446C28.3364 13.012 28.3647 12.8699 28.3647 12.7264C28.3647 12.5829 28.3364 12.4407 28.2815 12.3082C28.2265 12.1756 28.1461 12.0551 28.0446 11.9536C27.9431 11.8522 27.8226 11.7717 27.69 11.7167C27.5575 11.6618 27.4154 11.6336 27.2719 11.6336C27.1283 11.6336 26.9862 11.6618 26.8537 11.7167C26.7211 11.7717 26.6006 11.8522 26.4991 11.9536L25.4082 13.0445C25.2547 13.1971 25.1501 13.3919 25.1076 13.6041C25.0652 13.8163 25.0868 14.0364 25.1697 14.2363C25.2527 14.4362 25.3932 14.6069 25.5734 14.7267C25.7536 14.8465 25.9654 14.91 26.1819 14.9091ZM26.9537 25.41C26.7487 25.2051 26.4708 25.0899 26.1809 25.0899C25.8911 25.0899 25.6132 25.2051 25.4082 25.41C25.2033 25.6149 25.0881 25.8929 25.0881 26.1827C25.0881 26.4726 25.2033 26.7505 25.4082 26.9555L26.4991 28.0464C26.7041 28.2513 26.982 28.3664 27.2719 28.3664C27.5617 28.3664 27.8396 28.2513 28.0446 28.0464C28.2495 27.8414 28.3647 27.5635 28.3647 27.2736C28.3647 26.9838 28.2495 26.7058 28.0446 26.5009L26.9537 25.41ZM12.7273 20C12.7273 19.7107 12.6124 19.4332 12.4078 19.2286C12.2032 19.024 11.9257 18.9091 11.6364 18.9091H10.1819C9.89252 18.9091 9.61505 19.024 9.41046 19.2286C9.20588 19.4332 9.09094 19.7107 9.09094 20C9.09094 20.2893 9.20588 20.5668 9.41046 20.7714C9.61505 20.976 9.89252 21.0909 10.1819 21.0909H11.6364C11.9257 21.0909 12.2032 20.976 12.4078 20.7714C12.6124 20.5668 12.7273 20.2893 12.7273 20ZM20 27.2727C19.7107 27.2727 19.4332 27.3877 19.2286 27.5922C19.0241 27.7968 18.9091 28.0743 18.9091 28.3636V29.8182C18.9091 30.1075 19.0241 30.385 19.2286 30.5896C19.4332 30.7942 19.7107 30.9091 20 30.9091C20.2894 30.9091 20.5668 30.7942 20.7714 30.5896C20.976 30.385 21.0909 30.1075 21.0909 29.8182V28.3636C21.0909 28.0743 20.976 27.7968 20.7714 27.5922C20.5668 27.3877 20.2894 27.2727 20 27.2727ZM29.8182 18.9091H28.3637C28.0743 18.9091 27.7969 19.024 27.5923 19.2286C27.3877 19.4332 27.2728 19.7107 27.2728 20C27.2728 20.2893 27.3877 20.5668 27.5923 20.7714C27.7969 20.976 28.0743 21.0909 28.3637 21.0909H29.8182C30.1075 21.0909 30.385 20.976 30.5896 20.7714C30.7942 20.5668 30.9091 20.2893 30.9091 20C30.9091 19.7107 30.7942 19.4332 30.5896 19.2286C30.385 19.024 30.1075 18.9091 29.8182 18.9091Z"/>
</mask>
<path d="M18.9091 11.6364V10.1818C18.9091 9.89249 19.0241 9.61501 19.2286 9.41042C19.4332 9.20584 19.7107 9.0909 20 9.0909C20.2894 9.0909 20.5668 9.20584 20.7714 9.41042C20.976 9.61501 21.0909 9.89249 21.0909 10.1818V11.6364C21.0909 11.9257 20.976 12.2032 20.7714 12.4077C20.5668 12.6123 20.2894 12.7273 20 12.7273C19.7107 12.7273 19.4332 12.6123 19.2286 12.4077C19.0241 12.2032 18.9091 11.9257 18.9091 11.6364ZM26.1819 20C26.1819 21.2226 25.8193 22.4178 25.14 23.4344C24.4608 24.451 23.4953 25.2434 22.3657 25.7113C21.2361 26.1791 19.9932 26.3016 18.794 26.063C17.5949 25.8245 16.4934 25.2357 15.6288 24.3712C14.7643 23.5067 14.1755 22.4052 13.937 21.206C13.6985 20.0069 13.8209 18.7639 14.2888 17.6343C14.7567 16.5047 15.549 15.5393 16.5656 14.86C17.5822 14.1807 18.7774 13.8182 20 13.8182C21.639 13.8199 23.2104 14.4717 24.3694 15.6307C25.5283 16.7896 26.1802 18.361 26.1819 20ZM24 20C24 19.2089 23.7654 18.4355 23.3259 17.7777C22.8864 17.1199 22.2617 16.6072 21.5308 16.3045C20.7999 16.0017 19.9956 15.9225 19.2197 16.0769C18.4437 16.2312 17.731 16.6122 17.1716 17.1716C16.6122 17.731 16.2312 18.4437 16.0769 19.2196C15.9226 19.9956 16.0018 20.7998 16.3045 21.5307C16.6073 22.2616 17.12 22.8863 17.7778 23.3259C18.4355 23.7654 19.2089 24 20 24C21.0605 23.9988 22.0772 23.577 22.8271 22.8271C23.577 22.0772 23.9988 21.0605 24 20ZM13.0464 14.59C13.1479 14.6915 13.2683 14.772 13.4009 14.8269C13.5335 14.8818 13.6756 14.9101 13.8191 14.9101C13.9626 14.9101 14.1047 14.8818 14.2373 14.8269C14.3699 14.772 14.4904 14.6915 14.5919 14.59C14.6933 14.4885 14.7738 14.368 14.8287 14.2355C14.8837 14.1029 14.9119 13.9608 14.9119 13.8173C14.9119 13.6738 14.8837 13.5317 14.8287 13.3991C14.7738 13.2665 14.6933 13.146 14.5919 13.0445L13.5009 11.9536C13.296 11.7487 13.018 11.6336 12.7282 11.6336C12.4384 11.6336 12.1604 11.7487 11.9555 11.9536C11.7505 12.1586 11.6354 12.4365 11.6354 12.7264C11.6354 13.0162 11.7505 13.2941 11.9555 13.4991L13.0464 14.59ZM13.0464 25.4082L11.9555 26.4991C11.854 26.6006 11.7735 26.721 11.7186 26.8536C11.6637 26.9862 11.6354 27.1283 11.6354 27.2718C11.6354 27.4153 11.6637 27.5574 11.7186 27.69C11.7735 27.8226 11.854 27.9431 11.9555 28.0445C12.1604 28.2495 12.4384 28.3646 12.7282 28.3646C12.8717 28.3646 13.0138 28.3363 13.1464 28.2814C13.279 28.2265 13.3995 28.146 13.5009 28.0445L14.5919 26.9536C14.7968 26.7487 14.9119 26.4707 14.9119 26.1809C14.9119 25.8911 14.7968 25.6131 14.5919 25.4082C14.3869 25.2032 14.109 25.0881 13.8191 25.0881C13.5293 25.0881 13.2513 25.2032 13.0464 25.4082ZM26.1819 14.9091C26.3252 14.9092 26.4671 14.8811 26.5995 14.8263C26.7319 14.7716 26.8523 14.6913 26.9537 14.59L28.0446 13.4991C28.1461 13.3976 28.2265 13.2771 28.2815 13.1446C28.3364 13.012 28.3647 12.8699 28.3647 12.7264C28.3647 12.5829 28.3364 12.4407 28.2815 12.3082C28.2265 12.1756 28.1461 12.0551 28.0446 11.9536C27.9431 11.8522 27.8226 11.7717 27.69 11.7167C27.5575 11.6618 27.4154 11.6336 27.2719 11.6336C27.1283 11.6336 26.9862 11.6618 26.8537 11.7167C26.7211 11.7717 26.6006 11.8522 26.4991 11.9536L25.4082 13.0445C25.2547 13.1971 25.1501 13.3919 25.1076 13.6041C25.0652 13.8163 25.0868 14.0364 25.1697 14.2363C25.2527 14.4362 25.3932 14.6069 25.5734 14.7267C25.7536 14.8465 25.9654 14.91 26.1819 14.9091ZM26.9537 25.41C26.7487 25.2051 26.4708 25.0899 26.1809 25.0899C25.8911 25.0899 25.6132 25.2051 25.4082 25.41C25.2033 25.6149 25.0881 25.8929 25.0881 26.1827C25.0881 26.4726 25.2033 26.7505 25.4082 26.9555L26.4991 28.0464C26.7041 28.2513 26.982 28.3664 27.2719 28.3664C27.5617 28.3664 27.8396 28.2513 28.0446 28.0464C28.2495 27.8414 28.3647 27.5635 28.3647 27.2736C28.3647 26.9838 28.2495 26.7058 28.0446 26.5009L26.9537 25.41ZM12.7273 20C12.7273 19.7107 12.6124 19.4332 12.4078 19.2286C12.2032 19.024 11.9257 18.9091 11.6364 18.9091H10.1819C9.89252 18.9091 9.61505 19.024 9.41046 19.2286C9.20588 19.4332 9.09094 19.7107 9.09094 20C9.09094 20.2893 9.20588 20.5668 9.41046 20.7714C9.61505 20.976 9.89252 21.0909 10.1819 21.0909H11.6364C11.9257 21.0909 12.2032 20.976 12.4078 20.7714C12.6124 20.5668 12.7273 20.2893 12.7273 20ZM20 27.2727C19.7107 27.2727 19.4332 27.3877 19.2286 27.5922C19.0241 27.7968 18.9091 28.0743 18.9091 28.3636V29.8182C18.9091 30.1075 19.0241 30.385 19.2286 30.5896C19.4332 30.7942 19.7107 30.9091 20 30.9091C20.2894 30.9091 20.5668 30.7942 20.7714 30.5896C20.976 30.385 21.0909 30.1075 21.0909 29.8182V28.3636C21.0909 28.0743 20.976 27.7968 20.7714 27.5922C20.5668 27.3877 20.2894 27.2727 20 27.2727ZM29.8182 18.9091H28.3637C28.0743 18.9091 27.7969 19.024 27.5923 19.2286C27.3877 19.4332 27.2728 19.7107 27.2728 20C27.2728 20.2893 27.3877 20.5668 27.5923 20.7714C27.7969 20.976 28.0743 21.0909 28.3637 21.0909H29.8182C30.1075 21.0909 30.385 20.976 30.5896 20.7714C30.7942 20.5668 30.9091 20.2893 30.9091 20C30.9091 19.7107 30.7942 19.4332 30.5896 19.2286C30.385 19.024 30.1075 18.9091 29.8182 18.9091Z" fill="#666666" stroke="white" mask="url(#path-3-inside-1_38_143)"/>
</svg>
