<svg width="68" height="68" viewBox="0 0 68 68" fill="none" xmlns="http://www.w3.org/2000/svg">
<rect width="68" height="68" rx="5" fill="url(#paint0_linear_45_13)"/>
<path d="M31.5 19.25V26.75V19.25ZM36.5 19.25V26.75V19.25ZM45.25 23C45.25 24.4774 44.959 25.9403 44.3936 27.3052C43.8283 28.6701 42.9996 29.9103 41.955 30.955C40.9103 31.9996 39.6701 32.8283 38.3052 33.3936C36.9403 33.959 35.4774 34.25 34 34.25C32.5226 34.25 31.0597 33.959 29.6948 33.3936C28.3299 32.8283 27.0897 31.9996 26.045 30.955C25.0004 29.9103 24.1717 28.6701 23.6064 27.3052C23.041 25.9403 22.75 24.4774 22.75 23C22.75 20.0163 23.9353 17.1548 26.045 15.045C28.1548 12.9353 31.0163 11.75 34 11.75C36.9837 11.75 39.8452 12.9353 41.955 15.045C44.0647 17.1548 45.25 20.0163 45.25 23Z" stroke="#666666" stroke-linecap="round" stroke-linejoin="round"/>
<path d="M23.504 56.084C22.952 56.084 22.464 55.988 22.04 55.796C21.624 55.604 21.296 55.336 21.056 54.992C20.816 54.648 20.688 54.264 20.672 53.84H21.56C21.6 54.248 21.78 54.608 22.1 54.92C22.42 55.224 22.888 55.376 23.504 55.376C24.072 55.376 24.52 55.232 24.848 54.944C25.184 54.648 25.352 54.276 25.352 53.828C25.352 53.468 25.26 53.18 25.076 52.964C24.892 52.74 24.664 52.576 24.392 52.472C24.12 52.36 23.744 52.24 23.264 52.112C22.704 51.96 22.26 51.812 21.932 51.668C21.604 51.524 21.324 51.3 21.092 50.996C20.86 50.692 20.744 50.28 20.744 49.76C20.744 49.328 20.856 48.944 21.08 48.608C21.304 48.264 21.62 47.996 22.028 47.804C22.436 47.612 22.904 47.516 23.432 47.516C24.208 47.516 24.832 47.708 25.304 48.092C25.784 48.468 26.06 48.956 26.132 49.556H25.22C25.164 49.212 24.976 48.908 24.656 48.644C24.336 48.372 23.904 48.236 23.36 48.236C22.856 48.236 22.436 48.372 22.1 48.644C21.764 48.908 21.596 49.272 21.596 49.736C21.596 50.088 21.688 50.372 21.872 50.588C22.056 50.804 22.284 50.968 22.556 51.08C22.836 51.192 23.212 51.312 23.684 51.44C24.228 51.592 24.668 51.744 25.004 51.896C25.34 52.04 25.624 52.264 25.856 52.568C26.088 52.872 26.204 53.28 26.204 53.792C26.204 54.184 26.1 54.556 25.892 54.908C25.684 55.26 25.376 55.544 24.968 55.76C24.56 55.976 24.072 56.084 23.504 56.084ZM28.9192 50.156V54.224C28.9192 54.624 28.9952 54.9 29.1472 55.052C29.2992 55.204 29.5672 55.28 29.9512 55.28H30.7192V56H29.8192C29.2272 56 28.7872 55.864 28.4992 55.592C28.2112 55.312 28.0672 54.856 28.0672 54.224V50.156H27.1552V49.448H28.0672V47.804H28.9192V49.448H30.7192V50.156H28.9192ZM34.9725 56.096C34.3565 56.096 33.8005 55.96 33.3045 55.688C32.8165 55.408 32.4285 55.016 32.1405 54.512C31.8605 54 31.7205 53.404 31.7205 52.724C31.7205 52.044 31.8645 51.452 32.1525 50.948C32.4405 50.436 32.8325 50.044 33.3285 49.772C33.8245 49.492 34.3805 49.352 34.9965 49.352C35.6125 49.352 36.1685 49.492 36.6645 49.772C37.1685 50.044 37.5605 50.436 37.8405 50.948C38.1285 51.452 38.2725 52.044 38.2725 52.724C38.2725 53.396 38.1285 53.988 37.8405 54.5C37.5525 55.012 37.1565 55.408 36.6525 55.688C36.1485 55.96 35.5885 56.096 34.9725 56.096ZM34.9725 55.364C35.4045 55.364 35.8045 55.268 36.1725 55.076C36.5405 54.876 36.8365 54.58 37.0605 54.188C37.2925 53.788 37.4085 53.3 37.4085 52.724C37.4085 52.148 37.2965 51.664 37.0725 51.272C36.8485 50.872 36.5525 50.576 36.1845 50.384C35.8165 50.184 35.4165 50.084 34.9845 50.084C34.5525 50.084 34.1525 50.184 33.7845 50.384C33.4165 50.576 33.1205 50.872 32.8965 51.272C32.6805 51.664 32.5725 52.148 32.5725 52.724C32.5725 53.3 32.6805 53.788 32.8965 54.188C33.1205 54.58 33.4125 54.876 33.7725 55.076C34.1405 55.268 34.5405 55.364 34.9725 55.364ZM40.6318 50.888C40.8398 50.448 41.1678 50.084 41.6158 49.796C42.0718 49.5 42.6118 49.352 43.2358 49.352C43.8278 49.352 44.3598 49.492 44.8318 49.772C45.3118 50.044 45.6838 50.436 45.9478 50.948C46.2198 51.452 46.3558 52.04 46.3558 52.712C46.3558 53.384 46.2198 53.976 45.9478 54.488C45.6838 55 45.3118 55.396 44.8318 55.676C44.3598 55.956 43.8278 56.096 43.2358 56.096C42.6198 56.096 42.0838 55.952 41.6278 55.664C41.1718 55.368 40.8398 55 40.6318 54.56V59.096H39.8038V49.448H40.6318V50.888ZM45.5038 52.712C45.5038 52.168 45.3958 51.7 45.1797 51.308C44.9718 50.908 44.6838 50.604 44.3158 50.396C43.9478 50.188 43.5318 50.084 43.0678 50.084C42.6198 50.084 42.2078 50.192 41.8318 50.408C41.4638 50.624 41.1718 50.932 40.9558 51.332C40.7398 51.732 40.6318 52.196 40.6318 52.724C40.6318 53.252 40.7398 53.716 40.9558 54.116C41.1718 54.516 41.4638 54.824 41.8318 55.04C42.2078 55.256 42.6198 55.364 43.0678 55.364C43.5318 55.364 43.9478 55.26 44.3158 55.052C44.6838 54.836 44.9718 54.528 45.1797 54.128C45.3958 53.72 45.5038 53.248 45.5038 52.712Z" fill="white"/>
<defs>
<linearGradient id="paint0_linear_45_13" x1="34" y1="0" x2="34" y2="68" gradientUnits="userSpaceOnUse">
<stop stop-color="#999999" stop-opacity="0"/>
<stop offset="1" stop-color="#999999" stop-opacity="0.5"/>
</linearGradient>
</defs>
</svg>
