<svg width="68" height="68" viewBox="0 0 68 68" fill="none" xmlns="http://www.w3.org/2000/svg">
<rect width="68" height="68" rx="5" fill="url(#paint0_linear_45_8)"/>
<path d="M34.25 19.25L38 23L34.25 19.25ZM38 23L34.25 26.75L38 23ZM38 23H28H38ZM44.25 23C44.25 24.4774 43.959 25.9403 43.3936 27.3052C42.8283 28.6701 41.9996 29.9103 40.955 30.955C39.9103 31.9996 38.6701 32.8283 37.3052 33.3936C35.9403 33.959 34.4774 34.25 33 34.25C31.5226 34.25 30.0597 33.959 28.6948 33.3936C27.3299 32.8283 26.0897 31.9996 25.045 30.955C24.0004 29.9103 23.1717 28.6701 22.6064 27.3052C22.041 25.9403 21.75 24.4774 21.75 23C21.75 20.0163 22.9353 17.1548 25.045 15.045C27.1548 12.9353 30.0163 11.75 33 11.75C35.9837 11.75 38.8452 12.9353 40.955 15.045C43.0647 17.1548 44.25 20.0163 44.25 23Z" stroke="#666666" stroke-linecap="round" stroke-linejoin="round"/>
<path d="M14.496 47.612V48.308H10.8V51.44H13.92V52.136H10.8V56H9.96V47.612H14.496ZM18.746 56.096C18.13 56.096 17.574 55.96 17.078 55.688C16.59 55.408 16.202 55.016 15.914 54.512C15.634 54 15.494 53.404 15.494 52.724C15.494 52.044 15.638 51.452 15.926 50.948C16.214 50.436 16.606 50.044 17.102 49.772C17.598 49.492 18.154 49.352 18.77 49.352C19.386 49.352 19.942 49.492 20.438 49.772C20.942 50.044 21.334 50.436 21.614 50.948C21.902 51.452 22.046 52.044 22.046 52.724C22.046 53.396 21.902 53.988 21.614 54.5C21.326 55.012 20.93 55.408 20.426 55.688C19.922 55.96 19.362 56.096 18.746 56.096ZM18.746 55.364C19.178 55.364 19.578 55.268 19.946 55.076C20.314 54.876 20.61 54.58 20.834 54.188C21.066 53.788 21.182 53.3 21.182 52.724C21.182 52.148 21.07 51.664 20.846 51.272C20.622 50.872 20.326 50.576 19.958 50.384C19.59 50.184 19.19 50.084 18.758 50.084C18.326 50.084 17.926 50.184 17.558 50.384C17.19 50.576 16.894 50.872 16.67 51.272C16.454 51.664 16.346 52.148 16.346 52.724C16.346 53.3 16.454 53.788 16.67 54.188C16.894 54.58 17.186 54.876 17.546 55.076C17.914 55.268 18.314 55.364 18.746 55.364ZM24.4172 50.612C24.6012 50.204 24.8812 49.888 25.2572 49.664C25.6412 49.44 26.1092 49.328 26.6612 49.328V50.204H26.4332C25.8252 50.204 25.3372 50.368 24.9692 50.696C24.6012 51.024 24.4172 51.572 24.4172 52.34V56H23.5772V49.448H24.4172V50.612ZM36.5648 49.448L34.5128 56H33.6728L31.8608 50.504L30.0488 56H29.1968L27.1448 49.448H27.9968L29.6288 55.148L31.4648 49.448H32.3048L34.1168 55.16L35.7368 49.448H36.5648ZM37.326 52.712C37.326 52.04 37.458 51.452 37.722 50.948C37.994 50.436 38.366 50.044 38.838 49.772C39.318 49.492 39.858 49.352 40.458 49.352C41.082 49.352 41.618 49.496 42.066 49.784C42.522 50.072 42.85 50.44 43.05 50.888V49.448H43.89V56H43.05V54.548C42.842 54.996 42.51 55.368 42.054 55.664C41.606 55.952 41.07 56.096 40.446 56.096C39.854 56.096 39.318 55.956 38.838 55.676C38.366 55.396 37.994 55 37.722 54.488C37.458 53.976 37.326 53.384 37.326 52.712ZM43.05 52.724C43.05 52.196 42.942 51.732 42.726 51.332C42.51 50.932 42.214 50.624 41.838 50.408C41.47 50.192 41.062 50.084 40.614 50.084C40.15 50.084 39.734 50.188 39.366 50.396C38.998 50.604 38.706 50.908 38.49 51.308C38.282 51.7 38.178 52.168 38.178 52.712C38.178 53.248 38.282 53.72 38.49 54.128C38.706 54.528 38.998 54.836 39.366 55.052C39.734 55.26 40.15 55.364 40.614 55.364C41.062 55.364 41.47 55.256 41.838 55.04C42.214 54.824 42.51 54.516 42.726 54.116C42.942 53.716 43.05 53.252 43.05 52.724ZM46.6477 50.612C46.8317 50.204 47.1117 49.888 47.4877 49.664C47.8717 49.44 48.3397 49.328 48.8917 49.328V50.204H48.6637C48.0557 50.204 47.5677 50.368 47.1997 50.696C46.8317 51.024 46.6477 51.572 46.6477 52.34V56H45.8077V49.448H46.6477V50.612ZM49.7713 52.712C49.7713 52.04 49.9073 51.452 50.1793 50.948C50.4513 50.436 50.8233 50.044 51.2953 49.772C51.7753 49.492 52.3153 49.352 52.9153 49.352C53.4913 49.352 54.0113 49.492 54.4753 49.772C54.9393 50.052 55.2793 50.416 55.4953 50.864V47.12H56.3353V56H55.4953V54.536C55.2953 54.992 54.9673 55.368 54.5113 55.664C54.0553 55.952 53.5193 56.096 52.9033 56.096C52.3033 56.096 51.7633 55.956 51.2833 55.676C50.8113 55.396 50.4393 55 50.1673 54.488C49.9033 53.976 49.7713 53.384 49.7713 52.712ZM55.4953 52.724C55.4953 52.196 55.3873 51.732 55.1713 51.332C54.9553 50.932 54.6593 50.624 54.2833 50.408C53.9153 50.192 53.5073 50.084 53.0593 50.084C52.5953 50.084 52.1793 50.188 51.8113 50.396C51.4433 50.604 51.1513 50.908 50.9353 51.308C50.7273 51.7 50.6233 52.168 50.6233 52.712C50.6233 53.248 50.7273 53.72 50.9353 54.128C51.1513 54.528 51.4433 54.836 51.8113 55.052C52.1793 55.26 52.5953 55.364 53.0593 55.364C53.5073 55.364 53.9153 55.256 54.2833 55.04C54.6593 54.824 54.9553 54.516 55.1713 54.116C55.3873 53.716 55.4953 53.252 55.4953 52.724Z" fill="white"/>
<defs>
<linearGradient id="paint0_linear_45_8" x1="34" y1="0" x2="34" y2="68" gradientUnits="userSpaceOnUse">
<stop stop-color="#999999" stop-opacity="0"/>
<stop offset="1" stop-color="#999999" stop-opacity="0.5"/>
</linearGradient>
</defs>
</svg>
