<svg width="62" height="62" viewBox="0 0 62 62" fill="none" xmlns="http://www.w3.org/2000/svg">
<rect width="62" height="62" rx="16" fill="#005DB2"/>
<path d="M38.3553 20.2292L20.2303 38.3554L22.6422 40.7672L40.7672 22.6422L38.3553 20.2292ZM24.4607 22.0417C24.1434 22.0413 23.829 22.1035 23.5357 22.2247C23.2424 22.3458 22.9758 22.5236 22.7512 22.7478C22.5265 22.972 22.3483 23.2382 22.2265 23.5313C22.1048 23.8244 22.042 24.1385 22.0416 24.4559C22.0413 24.7733 22.1035 25.0876 22.2247 25.3809C22.3458 25.6742 22.5236 25.9408 22.7478 26.1655C22.9719 26.3901 23.2382 26.5684 23.5313 26.6901C23.8243 26.8118 24.1385 26.8747 24.4559 26.875C25.0968 26.8756 25.7118 26.6216 26.1654 26.1689C26.6191 25.7161 26.8743 25.1017 26.875 24.4607C26.8756 23.8198 26.6216 23.2049 26.1689 22.7512C25.7161 22.2975 25.1017 22.0423 24.4607 22.0417ZM36.5441 34.125C35.9031 34.1243 35.2882 34.3783 34.8345 34.8311C34.3808 35.2839 34.1256 35.8983 34.125 36.5392C34.1243 37.1802 34.3783 37.7951 34.8311 38.2488C35.2838 38.7025 35.8983 38.9577 36.5392 38.9583C36.8566 38.9586 37.1709 38.8964 37.4642 38.7753C37.7575 38.6541 38.0241 38.4764 38.2488 38.2522C38.4734 38.028 38.6517 37.7618 38.7734 37.4687C38.8952 37.1756 38.958 36.8614 38.9583 36.5441C38.9586 36.2267 38.8964 35.9124 38.7753 35.6191C38.6541 35.3257 38.4764 35.0592 38.2522 34.8345C38.028 34.6099 37.7618 34.4316 37.4687 34.3099C37.1756 34.1881 36.8614 34.1253 36.5441 34.125Z" fill="#24A5FF"/>
</svg>
