<svg width="62" height="60" viewBox="0 0 62 60" fill="none" xmlns="http://www.w3.org/2000/svg">
<rect width="62" height="60" rx="16" fill="#303136"/>
<path d="M22.74 23.656C22.74 22.5467 23.0387 21.5333 23.636 20.616C24.2333 19.6987 25.1187 18.9627 26.292 18.408C27.4867 17.8533 28.916 17.576 30.58 17.576C32.244 17.576 33.6627 17.8533 34.836 18.408C36.0307 18.9627 36.9267 19.6987 37.524 20.616C38.1427 21.5333 38.452 22.5467 38.452 23.656C38.452 24.8933 38.1213 25.96 37.46 26.856C36.82 27.752 35.86 28.4027 34.58 28.808C36.0093 29.256 37.108 29.9813 37.876 30.984C38.644 31.9653 39.028 33.1707 39.028 34.6C39.028 36.7973 38.2493 38.5147 36.692 39.752C35.1347 40.968 33.0973 41.576 30.58 41.576C28.0627 41.576 26.0253 40.968 24.468 39.752C22.932 38.5147 22.164 36.7973 22.164 34.6C22.164 33.1707 22.548 31.9653 23.316 30.984C24.084 29.9813 25.1827 29.256 26.612 28.808C25.332 28.4027 24.3613 27.752 23.7 26.856C23.06 25.96 22.74 24.8933 22.74 23.656ZM26.356 24.232C26.356 25.384 26.7293 26.28 27.476 26.92C28.244 27.5387 29.2787 27.848 30.58 27.848C31.8813 27.848 32.916 27.5387 33.684 26.92C34.452 26.28 34.836 25.384 34.836 24.232C34.836 23.08 34.4413 22.184 33.652 21.544C32.884 20.904 31.86 20.584 30.58 20.584C29.3 20.584 28.276 20.904 27.508 21.544C26.74 22.184 26.356 23.08 26.356 24.232ZM25.716 34.408C25.716 35.7093 26.1533 36.7333 27.028 37.48C27.9027 38.2053 29.0867 38.568 30.58 38.568C32.0733 38.568 33.2573 38.2053 34.132 37.48C35.0067 36.7333 35.444 35.7093 35.444 34.408C35.444 33.0853 34.9853 32.0933 34.068 31.432C33.172 30.7493 32.0093 30.408 30.58 30.408C29.172 30.408 28.0093 30.7493 27.092 31.432C26.1747 32.1147 25.716 33.1067 25.716 34.408Z" fill="#29A8FF"/>
</svg>
