<svg width="62" height="60" viewBox="0 0 62 60" fill="none" xmlns="http://www.w3.org/2000/svg">
<rect width="62" height="60" rx="16" fill="#303136"/>
<path d="M22.78 38.152C26.236 35.784 28.9987 33.4693 31.068 31.208C33.1587 28.9253 34.204 26.8133 34.204 24.872C34.204 23.72 33.916 22.8027 33.34 22.12C32.7853 21.4373 31.8787 21.096 30.62 21.096C29.3187 21.096 28.3373 21.5227 27.676 22.376C27.0147 23.208 26.6413 24.4027 26.556 25.96H23.004C23.1533 23.3787 23.9427 21.4053 25.372 20.04C26.8227 18.6747 28.668 17.992 30.908 17.992C33.1053 17.992 34.8227 18.5787 36.06 19.752C37.3187 20.904 37.948 22.504 37.948 24.552C37.948 26.1947 37.436 27.8587 36.412 29.544C35.4093 31.2293 34.1293 32.7867 32.572 34.216C31.0147 35.624 29.404 36.84 27.74 37.864H38.46V40.84H22.78V38.152Z" fill="#29A8FF"/>
</svg>
