<svg width="62" height="60" viewBox="0 0 62 60" fill="none" xmlns="http://www.w3.org/2000/svg">
<rect width="62" height="60" rx="16" fill="#303136"/>
<path d="M22.664 29.544C22.664 33.1493 23.304 35.976 24.584 38.024C25.864 40.0507 27.9973 41.064 30.984 41.064C33.9707 41.064 36.104 40.04 37.384 37.992C38.664 35.944 39.304 33.128 39.304 29.544C39.304 25.9813 38.664 23.1867 37.384 21.16C36.104 19.112 33.9707 18.088 30.984 18.088C27.9973 18.088 25.864 19.1013 24.584 21.128C23.304 23.1547 22.664 25.96 22.664 29.544ZM35.656 29.544C35.656 32.1467 35.336 34.1413 34.696 35.528C34.056 36.9147 32.8187 37.608 30.984 37.608C29.128 37.608 27.88 36.9147 27.24 35.528C26.6 34.1413 26.28 32.1467 26.28 29.544C26.28 26.9627 26.6 24.9893 27.24 23.624C27.88 22.2587 29.128 21.576 30.984 21.576C32.8187 21.576 34.056 22.2693 34.696 23.656C35.336 25.0213 35.656 26.984 35.656 29.544Z" fill="#29A8FF"/>
</svg>
