<svg width="120" height="30" viewBox="0 0 120 30" fill="none" xmlns="http://www.w3.org/2000/svg">
<rect width="73.3649" height="30" rx="15" fill="#D9D9D9"/>
<rect x="51.1848" width="68.8152" height="30" rx="15" fill="#005DB2"/>
<path d="M35 15C35 16.5913 34.3679 18.1174 33.2426 19.2426C32.1174 20.3679 30.5913 21 29 21C27.4087 21 25.8826 20.3679 24.7574 19.2426C23.6321 18.1174 23 16.5913 23 15C23 13.4087 23.6321 11.8826 24.7574 10.7574C25.8826 9.63214 27.4087 9 29 9C30.5913 9 32.1174 9.63214 33.2426 10.7574C34.3679 11.8826 35 13.4087 35 15Z" fill="black"/>
<path fill-rule="evenodd" clip-rule="evenodd" d="M29 4.25C29.1989 4.25 29.3897 4.32902 29.5303 4.46967C29.671 4.61032 29.75 4.80109 29.75 5V6C29.75 6.19891 29.671 6.38968 29.5303 6.53033C29.3897 6.67098 29.1989 6.75 29 6.75C28.8011 6.75 28.6103 6.67098 28.4697 6.53033C28.329 6.38968 28.25 6.19891 28.25 6V5C28.25 4.80109 28.329 4.61032 28.4697 4.46967C28.6103 4.32902 28.8011 4.25 29 4.25ZM21.399 7.399C21.5396 7.25855 21.7302 7.17966 21.929 7.17966C22.1278 7.17966 22.3184 7.25855 22.459 7.399L22.852 7.791C22.9887 7.93239 23.0644 8.1218 23.0628 8.31845C23.0611 8.5151 22.9824 8.70325 22.8434 8.84237C22.7044 8.98149 22.5163 9.06046 22.3197 9.06226C22.123 9.06406 21.9335 8.98855 21.792 8.852L21.399 8.459C21.2585 8.31837 21.1797 8.12775 21.1797 7.929C21.1797 7.73025 21.2585 7.53963 21.399 7.399ZM36.601 7.399C36.7415 7.53963 36.8203 7.73025 36.8203 7.929C36.8203 8.12775 36.7415 8.31837 36.601 8.459L36.208 8.852C36.0658 8.98448 35.8778 9.0566 35.6835 9.05317C35.4892 9.04975 35.3038 8.97103 35.1664 8.83362C35.029 8.69621 34.9503 8.51082 34.9468 8.31652C34.9434 8.12222 35.0155 7.93417 35.148 7.792L35.541 7.399C35.6816 7.25855 35.8722 7.17966 36.071 7.17966C36.2697 7.17966 36.4604 7.25855 36.601 7.399ZM18.25 15C18.25 14.8011 18.329 14.6103 18.4697 14.4697C18.6103 14.329 18.8011 14.25 19 14.25H20C20.1989 14.25 20.3897 14.329 20.5303 14.4697C20.671 14.6103 20.75 14.8011 20.75 15C20.75 15.1989 20.671 15.3897 20.5303 15.5303C20.3897 15.671 20.1989 15.75 20 15.75H19C18.8011 15.75 18.6103 15.671 18.4697 15.5303C18.329 15.3897 18.25 15.1989 18.25 15ZM37.25 15C37.25 14.8011 37.329 14.6103 37.4697 14.4697C37.6103 14.329 37.8011 14.25 38 14.25H39C39.1989 14.25 39.3897 14.329 39.5303 14.4697C39.671 14.6103 39.75 14.8011 39.75 15C39.75 15.1989 39.671 15.3897 39.5303 15.5303C39.3897 15.671 39.1989 15.75 39 15.75H38C37.8011 15.75 37.6103 15.671 37.4697 15.5303C37.329 15.3897 37.25 15.1989 37.25 15ZM35.148 21.148C35.2886 21.0076 35.4792 20.9287 35.678 20.9287C35.8768 20.9287 36.0674 21.0076 36.208 21.148L36.601 21.541C36.6747 21.6097 36.7338 21.6925 36.7748 21.7845C36.8158 21.8765 36.8378 21.9758 36.8396 22.0765C36.8414 22.1772 36.8228 22.2772 36.7851 22.3706C36.7474 22.464 36.6913 22.5488 36.62 22.62C36.5488 22.6913 36.464 22.7474 36.3706 22.7851C36.2772 22.8228 36.1772 22.8414 36.0765 22.8396C35.9758 22.8378 35.8765 22.8158 35.7845 22.7748C35.6925 22.7338 35.6097 22.6747 35.541 22.601L35.148 22.208C35.0076 22.0674 34.9287 21.8768 34.9287 21.678C34.9287 21.4792 35.0076 21.2886 35.148 21.148ZM22.852 21.148C22.9925 21.2886 23.0713 21.4792 23.0713 21.678C23.0713 21.8768 22.9925 22.0674 22.852 22.208L22.459 22.601C22.3903 22.6747 22.3075 22.7338 22.2155 22.7748C22.1235 22.8158 22.0242 22.8378 21.9235 22.8396C21.8228 22.8414 21.7228 22.8228 21.6294 22.7851C21.536 22.7474 21.4512 22.6913 21.38 22.62C21.3087 22.5488 21.2526 22.464 21.2149 22.3706C21.1772 22.2772 21.1586 22.1772 21.1604 22.0765C21.1622 21.9758 21.1842 21.8765 21.2252 21.7845C21.2662 21.6925 21.3253 21.6097 21.399 21.541L21.791 21.148C21.8607 21.0783 21.9434 21.023 22.0344 20.9853C22.1254 20.9476 22.223 20.9282 22.3215 20.9282C22.42 20.9282 22.5176 20.9476 22.6086 20.9853C22.6996 21.023 22.7824 21.0783 22.852 21.148ZM29 23.25C29.1989 23.25 29.3897 23.329 29.5303 23.4697C29.671 23.6103 29.75 23.8011 29.75 24V25C29.75 25.1989 29.671 25.3897 29.5303 25.5303C29.3897 25.671 29.1989 25.75 29 25.75C28.8011 25.75 28.6103 25.671 28.4697 25.5303C28.329 25.3897 28.25 25.1989 28.25 25V24C28.25 23.8011 28.329 23.6103 28.4697 23.4697C28.6103 23.329 28.8011 23.25 29 23.25Z" fill="black"/>
<path d="M90 6H90.393C89.1084 7.19371 88.2826 8.79984 88.0593 10.5392C87.836 12.2786 88.2293 14.0412 89.1708 15.5207C90.1122 17.0002 91.5424 18.103 93.2126 18.6375C94.8829 19.1719 96.6876 19.1041 98.313 18.446C97.6878 19.9505 96.6658 21.257 95.3562 22.2263C94.0466 23.1955 92.4985 23.791 90.8769 23.9494C89.2554 24.1077 87.6213 23.823 86.1489 23.1254C84.6765 22.4278 83.4211 21.3437 82.5166 19.9886C81.6121 18.6335 81.0924 17.0583 81.0129 15.431C80.9334 13.8037 81.2972 12.1853 82.0654 10.7485C82.8336 9.31173 83.9774 8.11042 85.3748 7.27273C86.7722 6.43504 88.3708 5.99239 90 5.992V6Z" stroke="black" stroke-width="2" stroke-linecap="round" stroke-linejoin="round"/>
</svg>
