<svg width="62" height="62" viewBox="0 0 62 62" fill="none" xmlns="http://www.w3.org/2000/svg">
<rect width="62" height="62" rx="16" fill="#616161"/>
<path d="M42.1222 26.3324H38.1335C37.9801 25.4801 37.6946 24.7301 37.277 24.0824C36.8594 23.4347 36.348 22.8849 35.7429 22.4332C35.1378 21.9815 34.4602 21.6406 33.7102 21.4105C32.9688 21.1804 32.1804 21.0653 31.3452 21.0653C29.8366 21.0653 28.4858 21.4446 27.2926 22.2031C26.108 22.9616 25.1705 24.0739 24.4801 25.5398C23.7983 27.0057 23.4574 28.7955 23.4574 30.9091C23.4574 33.0398 23.7983 34.8381 24.4801 36.304C25.1705 37.7699 26.1122 38.8778 27.3054 39.6278C28.4986 40.3778 29.8409 40.7528 31.3324 40.7528C32.1591 40.7528 32.9432 40.642 33.6847 40.4205C34.4347 40.1903 35.1122 39.8537 35.7173 39.4105C36.3224 38.9673 36.8338 38.4261 37.2514 37.7869C37.6776 37.1392 37.9716 36.3977 38.1335 35.5625L42.1222 35.5753C41.9091 36.8622 41.4957 38.0469 40.8821 39.1293C40.277 40.2031 39.4972 41.1321 38.5426 41.9162C37.5966 42.6918 36.5142 43.2926 35.2955 43.7188C34.0767 44.1449 32.7472 44.358 31.3068 44.358C29.0398 44.358 27.0199 43.821 25.2472 42.7472C23.4744 41.6648 22.0767 40.1179 21.054 38.1065C20.0398 36.0952 19.5327 33.696 19.5327 30.9091C19.5327 28.1136 20.044 25.7145 21.0668 23.7116C22.0895 21.7003 23.4872 20.1577 25.2599 19.0838C27.0327 18.0014 29.0483 17.4602 31.3068 17.4602C32.696 17.4602 33.9915 17.6605 35.1932 18.0611C36.4034 18.4531 37.4901 19.0327 38.4531 19.7997C39.4162 20.5582 40.2131 21.4872 40.8438 22.5866C41.4744 23.6776 41.9006 24.9261 42.1222 26.3324Z" fill="#868484"/>
</svg>
