<svg width="42" height="42" viewBox="0 0 42 42" fill="none" xmlns="http://www.w3.org/2000/svg">
<path d="M21 40.6875C31.8731 40.6875 40.6875 31.8731 40.6875 21C40.6875 10.1269 31.8731 1.3125 21 1.3125C10.1269 1.3125 1.3125 10.1269 1.3125 21C1.3125 31.8731 10.1269 40.6875 21 40.6875Z" fill="#FFE8A6"/>
<path d="M32.8125 27.6937C35.3496 27.6937 37.4062 25.6371 37.4062 23.1C37.4062 20.5629 35.3496 18.5062 32.8125 18.5062C30.2754 18.5062 28.2188 20.5629 28.2188 23.1C28.2188 25.6371 30.2754 27.6937 32.8125 27.6937Z" fill="#F4DC9F"/>
<path d="M11.8782 29.5312C14.0528 29.5312 15.8157 27.7684 15.8157 25.5938C15.8157 23.4191 14.0528 21.6562 11.8782 21.6562C9.70355 21.6562 7.94067 23.4191 7.94067 25.5938C7.94067 27.7684 9.70355 29.5312 11.8782 29.5312Z" fill="#F4DC9F"/>
<path d="M15.8813 38.7188C19.1433 38.7188 21.7876 36.0744 21.7876 32.8125C21.7876 29.5506 19.1433 26.9062 15.8813 26.9062C12.6194 26.9062 9.9751 29.5506 9.9751 32.8125C9.9751 36.0744 12.6194 38.7188 15.8813 38.7188Z" fill="#F4DC9F"/>
<path d="M15.75 13.9125C17.1997 13.9125 18.375 12.7372 18.375 11.2875C18.375 9.83775 17.1997 8.6625 15.75 8.6625C14.3003 8.6625 13.125 9.83775 13.125 11.2875C13.125 12.7372 14.3003 13.9125 15.75 13.9125Z" fill="#F4DC9F"/>
<path d="M24.2812 14.5687C25.731 14.5687 26.9062 13.3935 26.9062 11.9437C26.9062 10.494 25.731 9.31875 24.2812 9.31875C22.8315 9.31875 21.6562 10.494 21.6562 11.9437C21.6562 13.3935 22.8315 14.5687 24.2812 14.5687Z" fill="#F4DC9F"/>
<path d="M7.94067 19.6219C9.39042 19.6219 10.5657 18.4466 10.5657 16.9969C10.5657 15.5471 9.39042 14.3719 7.94067 14.3719C6.49093 14.3719 5.31567 15.5471 5.31567 16.9969C5.31567 18.4466 6.49093 19.6219 7.94067 19.6219Z" fill="#F4DC9F"/>
<path d="M25.5938 7.35C26.3186 7.35 26.9062 6.76237 26.9062 6.0375C26.9062 5.31263 26.3186 4.725 25.5938 4.725C24.8689 4.725 24.2812 5.31263 24.2812 6.0375C24.2812 6.76237 24.8689 7.35 25.5938 7.35Z" fill="#F4DC9F"/>
<path d="M5.31567 26.9062C6.04055 26.9062 6.62817 26.3186 6.62817 25.5938C6.62817 24.8689 6.04055 24.2812 5.31567 24.2812C4.5908 24.2812 4.00317 24.8689 4.00317 25.5938C4.00317 26.3186 4.5908 26.9062 5.31567 26.9062Z" fill="#F4DC9F"/>
<path d="M34.125 34.125C34.8499 34.125 35.4375 33.5374 35.4375 32.8125C35.4375 32.0876 34.8499 31.5 34.125 31.5C33.4001 31.5 32.8125 32.0876 32.8125 32.8125C32.8125 33.5374 33.4001 34.125 34.125 34.125Z" fill="#F4DC9F"/>
<path d="M16.4062 21.5906C17.4936 21.5906 18.375 20.7092 18.375 19.6219C18.375 18.5346 17.4936 17.6531 16.4062 17.6531C15.3189 17.6531 14.4375 18.5346 14.4375 19.6219C14.4375 20.7092 15.3189 21.5906 16.4062 21.5906Z" fill="#F4DC9F"/>
<path d="M9.84375 11.6156C10.5686 11.6156 11.1562 11.028 11.1562 10.3031C11.1562 9.57825 10.5686 8.99062 9.84375 8.99062C9.11888 8.99062 8.53125 9.57825 8.53125 10.3031C8.53125 11.028 9.11888 11.6156 9.84375 11.6156Z" fill="#F4DC9F"/>
<path d="M30.1875 37.1437C31.6372 37.1437 32.8125 35.9685 32.8125 34.5187C32.8125 33.069 31.6372 31.8937 30.1875 31.8937C28.7378 31.8937 27.5625 33.069 27.5625 34.5187C27.5625 35.9685 28.7378 37.1437 30.1875 37.1437Z" fill="#F4DC9F"/>
<path d="M15.8813 7.0875C15.8813 8.925 17.3251 10.3688 19.1626 10.3688C21.0001 10.3688 22.4438 8.925 22.4438 7.0875C22.4438 5.25 21.0001 3.80625 19.1626 3.80625C17.3251 3.74062 15.8813 5.25 15.8813 7.0875Z" fill="#F4DC9F"/>
</svg>
